G04 #@! TF.GenerationSoftware,KiCad,Pcbnew,9.0.4*
G04 #@! TF.CreationDate,2025-11-05T08:00:03+09:00*
G04 #@! TF.ProjectId,esp32_JJY_sim_C3_rev2,65737033-325f-44a4-9a59-5f73696d5f43,rev?*
G04 #@! TF.SameCoordinates,Original*
G04 #@! TF.FileFunction,Soldermask,Top*
G04 #@! TF.FilePolarity,Negative*
%FSLAX46Y46*%
G04 Gerber Fmt 4.6, Leading zero omitted, Abs format (unit mm)*
G04 Created by KiCad (PCBNEW 9.0.4) date 2025-11-05 08:00:03*
%MOMM*%
%LPD*%
G01*
G04 APERTURE LIST*
G04 Aperture macros list*
%AMRoundRect*
0 Rectangle with rounded corners*
0 $1 Rounding radius*
0 $2 $3 $4 $5 $6 $7 $8 $9 X,Y pos of 4 corners*
0 Add a 4 corners polygon primitive as box body*
4,1,4,$2,$3,$4,$5,$6,$7,$8,$9,$2,$3,0*
0 Add four circle primitives for the rounded corners*
1,1,$1+$1,$2,$3*
1,1,$1+$1,$4,$5*
1,1,$1+$1,$6,$7*
1,1,$1+$1,$8,$9*
0 Add four rect primitives between the rounded corners*
20,1,$1+$1,$2,$3,$4,$5,0*
20,1,$1+$1,$4,$5,$6,$7,0*
20,1,$1+$1,$6,$7,$8,$9,0*
20,1,$1+$1,$8,$9,$2,$3,0*%
%AMFreePoly0*
4,1,23,0.550000,-0.750000,0.000000,-0.750000,0.000000,-0.745722,-0.065263,-0.745722,-0.191342,-0.711940,-0.304381,-0.646677,-0.396677,-0.554381,-0.461940,-0.441342,-0.495722,-0.315263,-0.495722,-0.250000,-0.500000,-0.250000,-0.500000,0.250000,-0.495722,0.250000,-0.495722,0.315263,-0.461940,0.441342,-0.396677,0.554381,-0.304381,0.646677,-0.191342,0.711940,-0.065263,0.745722,0.000000,0.745722,
0.000000,0.750000,0.550000,0.750000,0.550000,-0.750000,0.550000,-0.750000,$1*%
%AMFreePoly1*
4,1,23,0.000000,0.745722,0.065263,0.745722,0.191342,0.711940,0.304381,0.646677,0.396677,0.554381,0.461940,0.441342,0.495722,0.315263,0.495722,0.250000,0.500000,0.250000,0.500000,-0.250000,0.495722,-0.250000,0.495722,-0.315263,0.461940,-0.441342,0.396677,-0.554381,0.304381,-0.646677,0.191342,-0.711940,0.065263,-0.745722,0.000000,-0.745722,0.000000,-0.750000,-0.550000,-0.750000,
-0.550000,0.750000,0.000000,0.750000,0.000000,0.745722,0.000000,0.745722,$1*%
G04 Aperture macros list end*
%ADD10RoundRect,0.225000X-0.225000X-0.250000X0.225000X-0.250000X0.225000X0.250000X-0.225000X0.250000X0*%
%ADD11RoundRect,0.200000X-0.275000X0.200000X-0.275000X-0.200000X0.275000X-0.200000X0.275000X0.200000X0*%
%ADD12RoundRect,0.200000X-0.200000X-0.275000X0.200000X-0.275000X0.200000X0.275000X-0.200000X0.275000X0*%
%ADD13RoundRect,0.218750X0.218750X0.256250X-0.218750X0.256250X-0.218750X-0.256250X0.218750X-0.256250X0*%
%ADD14RoundRect,0.200000X0.200000X0.275000X-0.200000X0.275000X-0.200000X-0.275000X0.200000X-0.275000X0*%
%ADD15RoundRect,0.112500X-0.112500X-0.237500X0.112500X-0.237500X0.112500X0.237500X-0.112500X0.237500X0*%
%ADD16C,3.200000*%
%ADD17C,1.700000*%
%ADD18C,1.500000*%
%ADD19RoundRect,0.200000X0.275000X-0.200000X0.275000X0.200000X-0.275000X0.200000X-0.275000X-0.200000X0*%
%ADD20C,1.350000*%
%ADD21R,1.000000X0.400000*%
%ADD22R,0.900000X1.500000*%
%ADD23R,2.900000X2.900000*%
%ADD24RoundRect,0.225000X-0.250000X0.225000X-0.250000X-0.225000X0.250000X-0.225000X0.250000X0.225000X0*%
%ADD25RoundRect,0.225000X0.225000X0.250000X-0.225000X0.250000X-0.225000X-0.250000X0.225000X-0.250000X0*%
%ADD26RoundRect,0.150000X0.150000X-0.625000X0.150000X0.625000X-0.150000X0.625000X-0.150000X-0.625000X0*%
%ADD27RoundRect,0.330000X1.220000X-0.770000X1.220000X0.770000X-1.220000X0.770000X-1.220000X-0.770000X0*%
%ADD28R,1.500000X0.700000*%
%ADD29R,0.700000X0.700000*%
%ADD30FreePoly0,180.000000*%
%ADD31R,1.000000X1.500000*%
%ADD32FreePoly1,180.000000*%
%ADD33R,1.700000X1.700000*%
%ADD34O,1.700000X1.700000*%
%ADD35RoundRect,0.150000X-0.512500X-0.150000X0.512500X-0.150000X0.512500X0.150000X-0.512500X0.150000X0*%
%ADD36RoundRect,0.225000X0.250000X-0.225000X0.250000X0.225000X-0.250000X0.225000X-0.250000X-0.225000X0*%
%ADD37C,0.650000*%
%ADD38R,1.140000X0.300000*%
%ADD39O,2.100000X1.000000*%
%ADD40O,1.800000X1.000000*%
%ADD41C,0.400000*%
G04 APERTURE END LIST*
G36*
X118550000Y-116750000D02*
G01*
X117050000Y-116750000D01*
X117050000Y-115250000D01*
X118550000Y-115250000D01*
X118550000Y-116750000D01*
G37*
D10*
X118650000Y-112975000D03*
X120200000Y-112975000D03*
D11*
X128250000Y-119350000D03*
X128250000Y-121000000D03*
D12*
X125455000Y-105090000D03*
X127105000Y-105090000D03*
D13*
X125787500Y-123000000D03*
X124212500Y-123000000D03*
D12*
X122125000Y-107550000D03*
X123775000Y-107550000D03*
D14*
X105075000Y-142800000D03*
X103425000Y-142800000D03*
D10*
X122175000Y-106000000D03*
X123725000Y-106000000D03*
D14*
X125825000Y-120200000D03*
X124175000Y-120200000D03*
D15*
X109210000Y-128200000D03*
X110510000Y-128200000D03*
X109860000Y-126200000D03*
D16*
X103000000Y-103000000D03*
D10*
X125505000Y-106750000D03*
X127055000Y-106750000D03*
X118650000Y-111400000D03*
X120200000Y-111400000D03*
D13*
X120287500Y-123000000D03*
X118712500Y-123000000D03*
D17*
X123740000Y-101625000D03*
X123740000Y-97815000D03*
D15*
X107600000Y-118000000D03*
X108900000Y-118000000D03*
X108250000Y-116000000D03*
D18*
X137600000Y-147600000D03*
D14*
X105075000Y-141250000D03*
X103425000Y-141250000D03*
D16*
X147000000Y-103000000D03*
D12*
X125475000Y-108400000D03*
X127125000Y-108400000D03*
D16*
X147000000Y-147000000D03*
D19*
X113780000Y-116850000D03*
X113780000Y-115200000D03*
D16*
X103000000Y-53000000D03*
D20*
X107750000Y-144600000D03*
X109250000Y-144600000D03*
D21*
X109275000Y-110950000D03*
X109275000Y-111600000D03*
X109275000Y-112250000D03*
X111525000Y-112250000D03*
X111525000Y-111600000D03*
X111525000Y-110950000D03*
D22*
X142800000Y-107450000D03*
X141300000Y-107450000D03*
X139800000Y-107450000D03*
X138300000Y-107450000D03*
X136800000Y-107450000D03*
X135300000Y-107450000D03*
X133800000Y-107450000D03*
X132300000Y-107450000D03*
X130800000Y-107450000D03*
X130800000Y-124950000D03*
X132300000Y-124950000D03*
X133800000Y-124950000D03*
X135300000Y-124950000D03*
X136800000Y-124950000D03*
X138300000Y-124950000D03*
X139800000Y-124950000D03*
X141300000Y-124950000D03*
X142800000Y-124950000D03*
D23*
X136600000Y-117160000D03*
D14*
X120325000Y-120200000D03*
X118675000Y-120200000D03*
D24*
X113780000Y-109300000D03*
X113780000Y-110850000D03*
D25*
X110525000Y-124100000D03*
X108975000Y-124100000D03*
D16*
X103000000Y-147000000D03*
D19*
X128250000Y-117825000D03*
X128250000Y-116175000D03*
D26*
X122490000Y-116350000D03*
X123760000Y-116350000D03*
X125030000Y-116350000D03*
X126300000Y-116350000D03*
X126300000Y-111000000D03*
X125030000Y-111000000D03*
X123760000Y-111000000D03*
X122490000Y-111000000D03*
D27*
X124395000Y-113675000D03*
D28*
X141000000Y-138882400D03*
X145000000Y-138882400D03*
X141000000Y-141117600D03*
X145000000Y-141117600D03*
D25*
X140550000Y-102450000D03*
X139000000Y-102450000D03*
D19*
X107610000Y-113525000D03*
X107610000Y-111875000D03*
D17*
X126280000Y-101625000D03*
X126280000Y-97815000D03*
D14*
X114825000Y-120200000D03*
X113175000Y-120200000D03*
D16*
X147000000Y-53000000D03*
D24*
X105060000Y-126200000D03*
X105060000Y-127750000D03*
D12*
X122125000Y-109125000D03*
X123775000Y-109125000D03*
D25*
X140550000Y-104150000D03*
X139000000Y-104150000D03*
D13*
X114787500Y-123000000D03*
X113212500Y-123000000D03*
D15*
X106542500Y-128200000D03*
X107842500Y-128200000D03*
X107192500Y-126200000D03*
D16*
X103000000Y-94000000D03*
D10*
X122175000Y-104450000D03*
X123725000Y-104450000D03*
D29*
X142615000Y-129650000D03*
X142615000Y-128550000D03*
X140785000Y-128550000D03*
X140785000Y-129650000D03*
D30*
X119100000Y-116000000D03*
D31*
X117800000Y-116000000D03*
D32*
X116500000Y-116000000D03*
D18*
X140200000Y-147600000D03*
D33*
X104500000Y-122540000D03*
D34*
X104500000Y-120000000D03*
X104500000Y-117460000D03*
X104500000Y-114920000D03*
X104500000Y-112380000D03*
X104500000Y-109840000D03*
D35*
X108262500Y-120450000D03*
X108262500Y-121400000D03*
X108262500Y-122350000D03*
X110537500Y-122350000D03*
X110537500Y-120450000D03*
D36*
X111400000Y-118550000D03*
X111400000Y-117000000D03*
D12*
X109175000Y-109200000D03*
X110825000Y-109200000D03*
D37*
X106400000Y-132330000D03*
X106400000Y-138110000D03*
D38*
X107470000Y-131870000D03*
X107470000Y-132670000D03*
X107470000Y-133970000D03*
X107470000Y-134970000D03*
X107470000Y-135470000D03*
X107470000Y-136470000D03*
X107470000Y-137770000D03*
X107470000Y-138570000D03*
X107470000Y-138270000D03*
X107470000Y-137470000D03*
X107470000Y-136970000D03*
X107470000Y-135970000D03*
X107470000Y-134470000D03*
X107470000Y-133470000D03*
X107470000Y-132970000D03*
X107470000Y-132170000D03*
D39*
X106900000Y-130900000D03*
D40*
X102720000Y-130900000D03*
D39*
X106900000Y-139540000D03*
D40*
X102720000Y-139540000D03*
D18*
X142800000Y-147600000D03*
D28*
X141000000Y-132882400D03*
X145000000Y-132882400D03*
X141000000Y-135117600D03*
X145000000Y-135117600D03*
D16*
X147000000Y-94000000D03*
D41*
X117000000Y-145750000D03*
X133000000Y-145750000D03*
M02*
