G04 #@! TF.GenerationSoftware,KiCad,Pcbnew,9.0.4*
G04 #@! TF.CreationDate,2025-11-05T08:00:03+09:00*
G04 #@! TF.ProjectId,esp32_JJY_sim_C3_rev2,65737033-325f-44a4-9a59-5f73696d5f43,rev?*
G04 #@! TF.SameCoordinates,Original*
G04 #@! TF.FileFunction,Profile,NP*
%FSLAX46Y46*%
G04 Gerber Fmt 4.6, Leading zero omitted, Abs format (unit mm)*
G04 Created by KiCad (PCBNEW 9.0.4) date 2025-11-05 08:00:03*
%MOMM*%
%LPD*%
G01*
G04 APERTURE LIST*
G04 #@! TA.AperFunction,Profile*
%ADD10C,0.050000*%
G04 #@! TD*
G04 APERTURE END LIST*
D10*
X145000000Y-99500000D02*
G75*
G02*
X144500000Y-100000000I-500000J0D01*
G01*
X127300000Y-100000000D02*
G75*
G02*
X127300000Y-99200000I0J400000D01*
G01*
X144500000Y-97000000D02*
G75*
G02*
X145000000Y-97500000I0J-500000D01*
G01*
X122300000Y-97500000D02*
X122300000Y-98800000D01*
X128200000Y-97000000D02*
X144500000Y-97000000D01*
X127700000Y-98800000D02*
G75*
G02*
X127300000Y-99200000I-400000J0D01*
G01*
X131000000Y-147500000D02*
G75*
G02*
X131353553Y-147646447I0J-500000D01*
G01*
X105000000Y-97500000D02*
X105000000Y-99500000D01*
X103500000Y-99500000D02*
G75*
G02*
X103000000Y-100000000I-500000J0D01*
G01*
X103500000Y-99500000D02*
X103500000Y-97500000D01*
X121800000Y-97000000D02*
G75*
G02*
X122300000Y-97500000I0J-500000D01*
G01*
X116462211Y-149853553D02*
G75*
G02*
X116108658Y-149999970I-353511J353553D01*
G01*
X150000000Y-94000000D02*
G75*
G02*
X147000000Y-97000000I-3000000J0D01*
G01*
X144500000Y-100000000D02*
X127300000Y-100000000D01*
X147000000Y-50000000D02*
G75*
G02*
X150000000Y-53000000I0J-3000000D01*
G01*
X116108658Y-150000000D02*
X103000000Y-150000000D01*
X127700000Y-97500000D02*
G75*
G02*
X128200000Y-97000000I500000J0D01*
G01*
X105000000Y-97500000D02*
G75*
G02*
X105500000Y-97000000I500000J0D01*
G01*
X150000000Y-53000000D02*
X150000000Y-94000000D01*
X147000000Y-100000000D02*
G75*
G02*
X150000000Y-103000000I0J-3000000D01*
G01*
X131000000Y-147500000D02*
X119000000Y-147500000D01*
X100000000Y-53000000D02*
G75*
G02*
X103000000Y-50000000I3000000J0D01*
G01*
X118646447Y-147646447D02*
G75*
G02*
X119000000Y-147500001I353553J-353553D01*
G01*
X122700000Y-99200000D02*
G75*
G02*
X122300000Y-98800000I0J400000D01*
G01*
X118646447Y-147646448D02*
X116462211Y-149853553D01*
X100000000Y-103000000D02*
G75*
G02*
X103000000Y-100000000I3000000J0D01*
G01*
X103000000Y-97000000D02*
G75*
G02*
X100000000Y-94000000I0J3000000D01*
G01*
X150000000Y-147000000D02*
X150000000Y-103000000D01*
X122700000Y-99200000D02*
G75*
G02*
X122700000Y-100000000I0J-400000D01*
G01*
X125300000Y-99200000D02*
X124700000Y-99200000D01*
X100000000Y-94000000D02*
X100000000Y-53000000D01*
X150000000Y-147000000D02*
G75*
G02*
X147000000Y-150000000I-3000000J0D01*
G01*
X103000000Y-97000000D02*
G75*
G02*
X103500000Y-97500000I0J-500000D01*
G01*
X124700000Y-100000000D02*
X125300000Y-100000000D01*
X105500000Y-100000000D02*
G75*
G02*
X105000000Y-99500000I0J500000D01*
G01*
X146500000Y-97500000D02*
X146500000Y-99500000D01*
X122700000Y-100000000D02*
X105500000Y-100000000D01*
X133891332Y-150000000D02*
G75*
G02*
X133537771Y-149853561I68J500200D01*
G01*
X125300000Y-99200000D02*
G75*
G02*
X125300000Y-100000000I0J-400000D01*
G01*
X146500000Y-97500000D02*
G75*
G02*
X147000000Y-97000000I500000J0D01*
G01*
X121800000Y-97000000D02*
X105500000Y-97000000D01*
X147000000Y-100000000D02*
G75*
G02*
X146500000Y-99500000I0J500000D01*
G01*
X100000000Y-147000000D02*
X100000000Y-103000000D01*
X103000000Y-150000000D02*
G75*
G02*
X100000000Y-147000000I0J3000000D01*
G01*
X145000000Y-99500000D02*
X145000000Y-97500000D01*
X124700000Y-100000000D02*
G75*
G02*
X124700000Y-99200000I0J400000D01*
G01*
X133891332Y-150000000D02*
X147000000Y-150000000D01*
X103000000Y-50000000D02*
X147000000Y-50000000D01*
X127700000Y-97500000D02*
X127700000Y-98800000D01*
X131353553Y-147646447D02*
X133537764Y-149853553D01*
M02*
