G04 #@! TF.GenerationSoftware,KiCad,Pcbnew,9.0.4*
G04 #@! TF.CreationDate,2025-11-05T08:00:03+09:00*
G04 #@! TF.ProjectId,esp32_JJY_sim_C3_rev2,65737033-325f-44a4-9a59-5f73696d5f43,rev?*
G04 #@! TF.SameCoordinates,Original*
G04 #@! TF.FileFunction,Copper,L2,Bot*
G04 #@! TF.FilePolarity,Positive*
%FSLAX46Y46*%
G04 Gerber Fmt 4.6, Leading zero omitted, Abs format (unit mm)*
G04 Created by KiCad (PCBNEW 9.0.4) date 2025-11-05 08:00:03*
%MOMM*%
%LPD*%
G01*
G04 APERTURE LIST*
G04 Aperture macros list*
%AMRoundRect*
0 Rectangle with rounded corners*
0 $1 Rounding radius*
0 $2 $3 $4 $5 $6 $7 $8 $9 X,Y pos of 4 corners*
0 Add a 4 corners polygon primitive as box body*
4,1,4,$2,$3,$4,$5,$6,$7,$8,$9,$2,$3,0*
0 Add four circle primitives for the rounded corners*
1,1,$1+$1,$2,$3*
1,1,$1+$1,$4,$5*
1,1,$1+$1,$6,$7*
1,1,$1+$1,$8,$9*
0 Add four rect primitives between the rounded corners*
20,1,$1+$1,$2,$3,$4,$5,0*
20,1,$1+$1,$4,$5,$6,$7,0*
20,1,$1+$1,$6,$7,$8,$9,0*
20,1,$1+$1,$8,$9,$2,$3,0*%
G04 Aperture macros list end*
G04 #@! TA.AperFunction,Conductor*
%ADD10C,0.200000*%
G04 #@! TD*
G04 #@! TA.AperFunction,ComponentPad*
%ADD11C,1.700000*%
G04 #@! TD*
G04 #@! TA.AperFunction,ComponentPad*
%ADD12C,1.500000*%
G04 #@! TD*
G04 #@! TA.AperFunction,ComponentPad*
%ADD13C,1.350000*%
G04 #@! TD*
G04 #@! TA.AperFunction,ComponentPad*
%ADD14R,1.700000X1.700000*%
G04 #@! TD*
G04 #@! TA.AperFunction,ComponentPad*
%ADD15O,1.700000X1.700000*%
G04 #@! TD*
G04 #@! TA.AperFunction,ComponentPad*
%ADD16O,2.100000X1.000000*%
G04 #@! TD*
G04 #@! TA.AperFunction,ComponentPad*
%ADD17O,1.800000X1.000000*%
G04 #@! TD*
G04 #@! TA.AperFunction,SMDPad,CuDef*
%ADD18RoundRect,0.200000X0.275000X-0.200000X0.275000X0.200000X-0.275000X0.200000X-0.275000X-0.200000X0*%
G04 #@! TD*
G04 #@! TA.AperFunction,SMDPad,CuDef*
%ADD19RoundRect,0.225000X-0.250000X0.225000X-0.250000X-0.225000X0.250000X-0.225000X0.250000X0.225000X0*%
G04 #@! TD*
G04 #@! TA.AperFunction,SMDPad,CuDef*
%ADD20RoundRect,0.225000X0.250000X-0.225000X0.250000X0.225000X-0.250000X0.225000X-0.250000X-0.225000X0*%
G04 #@! TD*
G04 #@! TA.AperFunction,SMDPad,CuDef*
%ADD21RoundRect,0.200000X0.200000X0.275000X-0.200000X0.275000X-0.200000X-0.275000X0.200000X-0.275000X0*%
G04 #@! TD*
G04 #@! TA.AperFunction,SMDPad,CuDef*
%ADD22RoundRect,0.200000X-0.275000X0.200000X-0.275000X-0.200000X0.275000X-0.200000X0.275000X0.200000X0*%
G04 #@! TD*
G04 #@! TA.AperFunction,SMDPad,CuDef*
%ADD23R,0.400000X3.500000*%
G04 #@! TD*
G04 #@! TA.AperFunction,ViaPad*
%ADD24C,0.800000*%
G04 #@! TD*
G04 #@! TA.AperFunction,ViaPad*
%ADD25C,1.000000*%
G04 #@! TD*
G04 #@! TA.AperFunction,Conductor*
%ADD26C,0.300000*%
G04 #@! TD*
G04 APERTURE END LIST*
D10*
X125000000Y-57600000D02*
G75*
G02*
X125000000Y-89600000I0J-16000000D01*
G01*
X125000000Y-88400000D02*
G75*
G02*
X125000000Y-58400000I0J15000000D01*
G01*
X125000000Y-55600000D02*
G75*
G02*
X125000000Y-91600000I0J-18000000D01*
G01*
X125000000Y-84400000D02*
G75*
G02*
X125000000Y-62400000I0J11000000D01*
G01*
X125000000Y-53600000D02*
G75*
G02*
X125000000Y-93600000I0J-20000000D01*
G01*
X125000000Y-86000000D02*
G75*
G02*
X125000000Y-60800000I0J12600000D01*
G01*
X125000000Y-56400000D02*
G75*
G02*
X125000000Y-90800000I0J-17200000D01*
G01*
X125000000Y-94400000D02*
G75*
G02*
X125000000Y-52400000I0J21000000D01*
G01*
X125000000Y-86400000D02*
G75*
G02*
X125000000Y-60400000I0J13000000D01*
G01*
X125000000Y-56800000D02*
G75*
G02*
X125000000Y-90400000I0J-16800000D01*
G01*
X125000000Y-95200000D02*
G75*
G02*
X125000000Y-51600000I0J21800000D01*
G01*
X125000000Y-58000000D02*
G75*
G02*
X125000000Y-89200000I0J-15600000D01*
G01*
X125000000Y-88000000D02*
G75*
G02*
X125000000Y-58800000I0J14600000D01*
G01*
X125000000Y-90400000D02*
G75*
G02*
X125000000Y-56400000I0J17000000D01*
G01*
X125000000Y-58800000D02*
G75*
G02*
X125000000Y-88400000I0J-14800000D01*
G01*
X125000000Y-94000000D02*
G75*
G02*
X125000000Y-52800000I0J20600000D01*
G01*
X125000000Y-60800000D02*
G75*
G02*
X125000000Y-86400000I0J-12800000D01*
G01*
X125000000Y-92000000D02*
G75*
G02*
X125000000Y-54800000I0J18600000D01*
G01*
X125000000Y-51200000D02*
G75*
G02*
X125000000Y-96000000I0J-22400000D01*
G01*
X125000000Y-91200000D02*
G75*
G02*
X125000000Y-55600000I0J17800000D01*
G01*
X125000000Y-90800000D02*
G75*
G02*
X125000000Y-56000000I0J17400000D01*
G01*
X125000000Y-85200000D02*
G75*
G02*
X125000000Y-61600000I0J11800000D01*
G01*
X125000000Y-53200000D02*
G75*
G02*
X125000000Y-94000000I0J-20400000D01*
G01*
X125000000Y-54800000D02*
G75*
G02*
X125000000Y-92400000I0J-18800000D01*
G01*
X125000000Y-93600000D02*
G75*
G02*
X125000000Y-53200000I0J20200000D01*
G01*
X125000000Y-56000000D02*
G75*
G02*
X125000000Y-91200000I0J-17600000D01*
G01*
X125000000Y-57200000D02*
G75*
G02*
X125000000Y-90000000I0J-16400000D01*
G01*
X125000000Y-89200000D02*
G75*
G02*
X125000000Y-57600000I0J15800000D01*
G01*
X125000000Y-90000000D02*
G75*
G02*
X125000000Y-56800000I0J16600000D01*
G01*
X125000000Y-85600000D02*
G75*
G02*
X125000000Y-61200000I0J12200000D01*
G01*
X125000000Y-50800000D02*
G75*
G02*
X126275800Y-96364278I0J-22800000D01*
G01*
X125000000Y-52000000D02*
G75*
G02*
X125000000Y-95200000I0J-21600000D01*
G01*
X125000000Y-60000000D02*
G75*
G02*
X125000000Y-87200000I0J-13600000D01*
G01*
X125000000Y-94800000D02*
G75*
G02*
X125000000Y-52000000I0J21400000D01*
G01*
X125000000Y-62000000D02*
G75*
G02*
X125000000Y-85200000I0J-11600000D01*
G01*
X125000000Y-59600000D02*
G75*
G02*
X125000000Y-87600000I0J-14000000D01*
G01*
X125000000Y-95600000D02*
G75*
G02*
X125000000Y-51200000I0J22200000D01*
G01*
X125000000Y-93200000D02*
G75*
G02*
X125000000Y-53600000I0J19800000D01*
G01*
X125000000Y-60400000D02*
G75*
G02*
X125000000Y-86800000I0J-13200000D01*
G01*
X125000000Y-52800000D02*
G75*
G02*
X125000000Y-94400000I0J-20800000D01*
G01*
X125000000Y-54000000D02*
G75*
G02*
X125000000Y-93200000I0J-19600000D01*
G01*
X125000000Y-51600000D02*
G75*
G02*
X125000000Y-95600000I0J-22000000D01*
G01*
X125000000Y-88800000D02*
G75*
G02*
X125000000Y-58000000I0J15400000D01*
G01*
X125000000Y-87600000D02*
G75*
G02*
X125000000Y-59200000I0J14200000D01*
G01*
X125000000Y-59200000D02*
G75*
G02*
X125000000Y-88000000I0J-14400000D01*
G01*
X125000000Y-52400000D02*
G75*
G02*
X125000000Y-94800000I0J-21200000D01*
G01*
X125000000Y-91600000D02*
G75*
G02*
X125000000Y-55200000I0J18200000D01*
G01*
X125000000Y-92400000D02*
G75*
G02*
X125000000Y-54400000I0J19000000D01*
G01*
X125000000Y-58400000D02*
G75*
G02*
X125000000Y-88800000I0J-15200000D01*
G01*
X125000000Y-61600000D02*
G75*
G02*
X125000000Y-85600000I0J-12000000D01*
G01*
X125000000Y-86800000D02*
G75*
G02*
X125000000Y-60000000I0J13400000D01*
G01*
X125000000Y-92800000D02*
G75*
G02*
X125000000Y-54000000I0J19400000D01*
G01*
X125000000Y-55200000D02*
G75*
G02*
X125000000Y-92000000I0J-18400000D01*
G01*
X125000000Y-54400000D02*
G75*
G02*
X125000000Y-92800000I0J-19200000D01*
G01*
X125000000Y-96000000D02*
G75*
G02*
X125000000Y-50800000I0J22600000D01*
G01*
X125000000Y-84800000D02*
G75*
G02*
X125000000Y-62000000I0J11400000D01*
G01*
X125000000Y-61200000D02*
G75*
G02*
X125000000Y-86000000I0J-12400000D01*
G01*
X125000000Y-62400000D02*
G75*
G02*
X125000000Y-84800000I0J-11200000D01*
G01*
X125000000Y-87200000D02*
G75*
G02*
X125000000Y-59600000I0J13800000D01*
G01*
X125000000Y-89600000D02*
G75*
G02*
X125000000Y-57200000I0J16200000D01*
G01*
D11*
X123740000Y-101625000D03*
X123740000Y-97815000D03*
D12*
X137600000Y-147600000D03*
D13*
X107750000Y-144600000D03*
X109250000Y-144600000D03*
D11*
X126280000Y-101625000D03*
X126280000Y-97815000D03*
D12*
X140200000Y-147600000D03*
D14*
X104500000Y-122540000D03*
D15*
X104500000Y-120000000D03*
X104500000Y-117460000D03*
X104500000Y-114920000D03*
X104500000Y-112380000D03*
X104500000Y-109840000D03*
D16*
X106900000Y-130900000D03*
D17*
X102720000Y-130900000D03*
D16*
X106900000Y-139540000D03*
D17*
X102720000Y-139540000D03*
D12*
X142800000Y-147600000D03*
D18*
X131400000Y-137825000D03*
X131400000Y-136175000D03*
D19*
X117550000Y-136220000D03*
X117550000Y-137770000D03*
D20*
X134800000Y-137775000D03*
X134800000Y-136225000D03*
D21*
X127600000Y-137750000D03*
X125950000Y-137750000D03*
D20*
X119250000Y-137775000D03*
X119250000Y-136225000D03*
X115475000Y-137770000D03*
X115475000Y-136220000D03*
D22*
X123950000Y-136125000D03*
X123950000Y-137775000D03*
D20*
X120925000Y-137775000D03*
X120925000Y-136225000D03*
D21*
X127600000Y-136100000D03*
X125950000Y-136100000D03*
D23*
X114850000Y-141750000D03*
X115550000Y-141750000D03*
X116250000Y-141750000D03*
X116950000Y-141750000D03*
X117650000Y-141750000D03*
X118350000Y-141750000D03*
X119050000Y-141750000D03*
X119750000Y-141750000D03*
X120450000Y-141750000D03*
X121150000Y-141750000D03*
X121850000Y-141750000D03*
X122550000Y-141750000D03*
X123250000Y-141750000D03*
X123950000Y-141750000D03*
X124650000Y-141750000D03*
X125350000Y-141750000D03*
X126050000Y-141750000D03*
X126750000Y-141750000D03*
X127450000Y-141750000D03*
X128150000Y-141750000D03*
X128850000Y-141750000D03*
X129550000Y-141750000D03*
X130250000Y-141750000D03*
X130950000Y-141750000D03*
X131650000Y-141750000D03*
X132350000Y-141750000D03*
X133050000Y-141750000D03*
X133750000Y-141750000D03*
X134450000Y-141750000D03*
X135150000Y-141750000D03*
D20*
X133100000Y-137775000D03*
X133100000Y-136225000D03*
D24*
X119000000Y-131000000D03*
X132000000Y-121000000D03*
X105000000Y-106000000D03*
X129000000Y-125000000D03*
X125000000Y-146000000D03*
X111000000Y-115000000D03*
X113000000Y-101000000D03*
X139050000Y-123250000D03*
X139000000Y-140000000D03*
X115000000Y-146000000D03*
X139000000Y-117170000D03*
X130000000Y-103000000D03*
X113000000Y-131000000D03*
X142500000Y-121000000D03*
X135000000Y-146000000D03*
X129500000Y-138000000D03*
X131000000Y-111000000D03*
X136000000Y-103000000D03*
X142500000Y-103000000D03*
X131300000Y-131000000D03*
X113000000Y-140000000D03*
X116500000Y-121500000D03*
X109700000Y-121400000D03*
X122000000Y-121500000D03*
X113000000Y-106000000D03*
X142500000Y-112000000D03*
X125000000Y-131000000D03*
X113000000Y-126000000D03*
X103400000Y-135400000D03*
X134000000Y-117170000D03*
X139000000Y-131000000D03*
X117300000Y-110400000D03*
X140950000Y-108700000D03*
X116600000Y-108700000D03*
X140650000Y-131950000D03*
D25*
X127424000Y-129650000D03*
D24*
X133150000Y-126850000D03*
X136798998Y-110663948D03*
X136807531Y-111689923D03*
X131951000Y-126799000D03*
X134000000Y-122119000D03*
X126300000Y-122150000D03*
X125000000Y-84100000D03*
X137930025Y-127619975D03*
X110300000Y-112800000D03*
X134079601Y-109420399D03*
X133392951Y-130400000D03*
X135225000Y-109400000D03*
X122000000Y-123000000D03*
X132600000Y-112400000D03*
X135150000Y-126250000D03*
X106319051Y-135270002D03*
X106302097Y-136269859D03*
X135050000Y-127400000D03*
X141794975Y-126305025D03*
D10*
X140950000Y-131650000D02*
X140650000Y-131950000D01*
X140950000Y-108700000D02*
X140950000Y-131650000D01*
X116600000Y-108700000D02*
X140950000Y-108700000D01*
D26*
X123225000Y-136125000D02*
X123950000Y-136125000D01*
X121652000Y-139600000D02*
X121850000Y-139798000D01*
X119250000Y-139600000D02*
X118548000Y-139600000D01*
X120925000Y-137775000D02*
X121575000Y-137775000D01*
X123950000Y-136125000D02*
X125925000Y-136125000D01*
X125955000Y-136095000D02*
X125950000Y-136100000D01*
X121575000Y-137775000D02*
X123225000Y-136125000D01*
X121850000Y-139798000D02*
X121850000Y-141750000D01*
X120450000Y-139600000D02*
X119250000Y-139600000D01*
X125925000Y-136125000D02*
X125950000Y-136100000D01*
X120925000Y-137775000D02*
X119250000Y-137775000D01*
X127424000Y-129650000D02*
X127424000Y-129676000D01*
X125950000Y-136100000D02*
X125950000Y-137750000D01*
X119250000Y-137775000D02*
X119250000Y-139600000D01*
X127424000Y-129676000D02*
X125950000Y-131150000D01*
X120450000Y-141750000D02*
X120450000Y-139600000D01*
X118548000Y-139600000D02*
X118350000Y-139798000D01*
X120450000Y-139600000D02*
X121652000Y-139600000D01*
X118350000Y-139798000D02*
X118350000Y-141750000D01*
X125950000Y-131150000D02*
X125950000Y-136100000D01*
D10*
X133740000Y-141740000D02*
X133750000Y-141750000D01*
X133740000Y-138835000D02*
X133740000Y-141740000D01*
X134800000Y-137775000D02*
X133740000Y-138835000D01*
X133100000Y-137775000D02*
X133050000Y-137825000D01*
X133050000Y-137825000D02*
X133050000Y-141750000D01*
X131009636Y-126749000D02*
X118869000Y-126749000D01*
X132398000Y-126098000D02*
X131660636Y-126098000D01*
X133150000Y-126850000D02*
X132398000Y-126098000D01*
X131660636Y-126098000D02*
X131009636Y-126749000D01*
X118869000Y-126749000D02*
X104500000Y-112380000D01*
X136798998Y-110663948D02*
X136100000Y-111362946D01*
X136399000Y-128383900D02*
X128682900Y-136100000D01*
X128682900Y-136100000D02*
X127600000Y-136100000D01*
X136100000Y-111362946D02*
X136100000Y-111973756D01*
X136399000Y-112272756D02*
X136399000Y-128383900D01*
X127600000Y-136100000D02*
X126750000Y-136950000D01*
X136100000Y-111973756D02*
X136399000Y-112272756D01*
X126750000Y-136950000D02*
X126750000Y-141750000D01*
X128150000Y-139740000D02*
X127450000Y-139740000D01*
X136800000Y-111697454D02*
X136800000Y-128550000D01*
X127450000Y-141750000D02*
X127450000Y-139740000D01*
X136800000Y-128550000D02*
X127600000Y-137750000D01*
X136807531Y-111689923D02*
X136800000Y-111697454D01*
X127450000Y-137900000D02*
X127450000Y-139740000D01*
X128150000Y-141750000D02*
X128150000Y-139740000D01*
X127600000Y-137750000D02*
X127450000Y-137900000D01*
X106472900Y-114920000D02*
X104500000Y-114920000D01*
X131951000Y-126799000D02*
X131600000Y-127150000D01*
X131600000Y-127150000D02*
X118702900Y-127150000D01*
X118702900Y-127150000D02*
X106472900Y-114920000D01*
X117650000Y-137770000D02*
X117650000Y-141750000D01*
X117550000Y-137770000D02*
X117650000Y-137770000D01*
X116950000Y-138790000D02*
X116950000Y-141750000D01*
X116705000Y-138545000D02*
X116950000Y-138790000D01*
X116705000Y-137165000D02*
X116705000Y-138545000D01*
X117650000Y-136220000D02*
X116705000Y-137165000D01*
X134000000Y-122119000D02*
X126331000Y-122119000D01*
X126331000Y-122119000D02*
X126300000Y-122150000D01*
X126265000Y-96375078D02*
X126265000Y-97800000D01*
X125000000Y-84100000D02*
X125000000Y-84400000D01*
X126270000Y-96370078D02*
X126265000Y-96375078D01*
X115495000Y-136220000D02*
X116250000Y-136975000D01*
X116250000Y-136975000D02*
X116250000Y-141750000D01*
X115550000Y-137845000D02*
X115475000Y-137770000D01*
X115550000Y-141750000D02*
X115550000Y-137845000D01*
X137930025Y-127619975D02*
X137927677Y-127619975D01*
X137600000Y-127947652D02*
X137600000Y-147600000D01*
X137927677Y-127619975D02*
X137600000Y-127947652D01*
X133815800Y-130400000D02*
X135998000Y-128217800D01*
X110301000Y-112801000D02*
X113499000Y-112801000D01*
X110300000Y-112800000D02*
X110301000Y-112801000D01*
X117199000Y-109101000D02*
X133760203Y-109101000D01*
X135998000Y-128217800D02*
X135998000Y-112438856D01*
X135700000Y-111040797D02*
X134079601Y-109420399D01*
X135699000Y-111196846D02*
X135700000Y-111195846D01*
X133760203Y-109101000D02*
X134079601Y-109420399D01*
X133392951Y-130400000D02*
X133815800Y-130400000D01*
X135699000Y-112139856D02*
X135699000Y-111196846D01*
X135700000Y-111195846D02*
X135700000Y-111040797D01*
X135998000Y-112438856D02*
X135699000Y-112139856D01*
X113499000Y-112801000D02*
X117199000Y-109101000D01*
X135225000Y-109400000D02*
X136525000Y-109400000D01*
X124650000Y-144700000D02*
X123950000Y-144000000D01*
X137087948Y-109962948D02*
X137089362Y-109962948D01*
X136000000Y-144700000D02*
X124650000Y-144700000D01*
X137201000Y-112287818D02*
X137201000Y-127882314D01*
X137201000Y-127882314D02*
X137200000Y-127883314D01*
X123950000Y-137775000D02*
X123950000Y-141750000D01*
X137508531Y-110382117D02*
X137508531Y-111980287D01*
X137508531Y-111980287D02*
X137201000Y-112287818D01*
X137089362Y-109962948D02*
X137508531Y-110382117D01*
X137200000Y-143500000D02*
X136000000Y-144700000D01*
X123950000Y-144000000D02*
X123950000Y-141750000D01*
X137200000Y-127883314D02*
X137200000Y-143500000D01*
X136525000Y-109400000D02*
X137087948Y-109962948D01*
X132600000Y-112400000D02*
X122000000Y-123000000D01*
X114039057Y-127550000D02*
X133850000Y-127550000D01*
X133850000Y-127550000D02*
X135150000Y-126250000D01*
X106319055Y-135270002D02*
X114039057Y-127550000D01*
X106319051Y-135270002D02*
X106319055Y-135270002D01*
X114205157Y-127951000D02*
X107020051Y-135136106D01*
X106609415Y-135971002D02*
X106608001Y-135971002D01*
X134567100Y-127400000D02*
X134016100Y-127951000D01*
X106309144Y-136269859D02*
X106302097Y-136269859D01*
X135050000Y-127400000D02*
X134567100Y-127400000D01*
X107020051Y-135560366D02*
X106609415Y-135971002D01*
X107020051Y-135136106D02*
X107020051Y-135560366D01*
X106608001Y-135971002D02*
X106309144Y-136269859D01*
X134016100Y-127951000D02*
X114205157Y-127951000D01*
X141794975Y-126305025D02*
X141400000Y-126700000D01*
X141400000Y-139650000D02*
X140200000Y-140850000D01*
X140200000Y-140850000D02*
X140200000Y-147600000D01*
X141400000Y-126700000D02*
X141400000Y-139650000D01*
X131455000Y-137825000D02*
X132350000Y-138720000D01*
X131400000Y-137825000D02*
X131455000Y-137825000D01*
X132350000Y-138720000D02*
X132350000Y-141750000D01*
G04 #@! TA.AperFunction,Conductor*
G36*
X105342689Y-100003109D02*
G01*
X105440785Y-100025499D01*
X105440790Y-100025500D01*
X122761178Y-100025500D01*
X122830918Y-100005022D01*
X122865851Y-100000000D01*
X124534149Y-100000000D01*
X124569081Y-100005022D01*
X124606852Y-100016113D01*
X124638821Y-100025500D01*
X124638822Y-100025500D01*
X125361178Y-100025500D01*
X125430918Y-100005022D01*
X125465851Y-100000000D01*
X127134149Y-100000000D01*
X127169081Y-100005022D01*
X127206852Y-100016113D01*
X127238821Y-100025500D01*
X143676000Y-100025500D01*
X143743039Y-100045185D01*
X143788794Y-100097989D01*
X143800000Y-100149500D01*
X143800000Y-132000000D01*
X149938181Y-138138181D01*
X149971666Y-138199504D01*
X149974500Y-138225862D01*
X149974500Y-146996753D01*
X149974330Y-147003243D01*
X149958544Y-147304433D01*
X149957187Y-147317340D01*
X149910517Y-147612010D01*
X149907819Y-147624706D01*
X149830600Y-147912892D01*
X149826589Y-147925237D01*
X149719670Y-148203770D01*
X149714391Y-148215627D01*
X149578941Y-148481464D01*
X149572455Y-148492697D01*
X149499850Y-148604500D01*
X149409962Y-148742914D01*
X149402333Y-148753414D01*
X149214570Y-148985282D01*
X149205885Y-148994927D01*
X148994927Y-149205885D01*
X148985282Y-149214570D01*
X148753414Y-149402333D01*
X148742914Y-149409962D01*
X148492697Y-149572455D01*
X148481464Y-149578941D01*
X148215627Y-149714391D01*
X148203770Y-149719670D01*
X147925237Y-149826589D01*
X147912892Y-149830600D01*
X147624706Y-149907819D01*
X147612010Y-149910517D01*
X147317340Y-149957187D01*
X147304433Y-149958544D01*
X147003244Y-149974330D01*
X146996754Y-149974500D01*
X133897435Y-149974500D01*
X133885270Y-149973902D01*
X133871658Y-149972560D01*
X133810912Y-149966571D01*
X133787082Y-149961829D01*
X133721432Y-149941913D01*
X133698984Y-149932615D01*
X133638479Y-149900280D01*
X133618273Y-149886782D01*
X133560775Y-149839608D01*
X133551289Y-149830967D01*
X132376316Y-148643677D01*
X142109873Y-148643677D01*
X142109873Y-148643678D01*
X142144858Y-148669096D01*
X142320164Y-148758418D01*
X142507294Y-148819221D01*
X142701618Y-148850000D01*
X142898382Y-148850000D01*
X143092705Y-148819221D01*
X143279835Y-148758418D01*
X143455143Y-148669095D01*
X143490125Y-148643678D01*
X143490126Y-148643678D01*
X142800001Y-147953553D01*
X142800000Y-147953553D01*
X142109873Y-148643677D01*
X132376316Y-148643677D01*
X131429537Y-147686974D01*
X131429537Y-147686973D01*
X131377454Y-147634346D01*
X131377443Y-147634275D01*
X131371690Y-147628522D01*
X131371584Y-147628415D01*
X131371585Y-147628415D01*
X131371499Y-147628329D01*
X131364249Y-147621003D01*
X131347852Y-147604434D01*
X131347091Y-147603920D01*
X131334989Y-147591818D01*
X131248916Y-147534306D01*
X131165500Y-147499754D01*
X131153283Y-147494694D01*
X131153279Y-147494693D01*
X131153275Y-147494692D01*
X131051761Y-147474500D01*
X131051757Y-147474500D01*
X131010562Y-147474500D01*
X118989438Y-147474500D01*
X118964775Y-147474500D01*
X118964771Y-147474501D01*
X118948243Y-147474501D01*
X118897480Y-147484598D01*
X118846716Y-147494695D01*
X118846711Y-147494696D01*
X118751085Y-147534308D01*
X118751075Y-147534313D01*
X118665015Y-147591817D01*
X118665013Y-147591819D01*
X118652901Y-147603930D01*
X118652900Y-147603929D01*
X118635827Y-147621003D01*
X118635752Y-147621004D01*
X118628502Y-147628329D01*
X118628237Y-147628594D01*
X118628081Y-147628751D01*
X118609571Y-147647261D01*
X118609041Y-147647992D01*
X116448695Y-149830956D01*
X116439218Y-149839590D01*
X116381715Y-149886777D01*
X116361500Y-149900282D01*
X116301012Y-149932608D01*
X116278556Y-149941908D01*
X116230011Y-149956630D01*
X116212917Y-149961814D01*
X116189078Y-149966554D01*
X116122901Y-149973067D01*
X116114400Y-149973904D01*
X116102256Y-149974500D01*
X103003246Y-149974500D01*
X102996756Y-149974330D01*
X102695566Y-149958544D01*
X102682659Y-149957187D01*
X102387989Y-149910517D01*
X102375293Y-149907819D01*
X102347164Y-149900282D01*
X102218203Y-149865727D01*
X102087107Y-149830600D01*
X102074762Y-149826589D01*
X101796229Y-149719670D01*
X101784372Y-149714391D01*
X101755029Y-149699440D01*
X101518529Y-149578937D01*
X101507310Y-149572460D01*
X101257079Y-149409958D01*
X101246585Y-149402333D01*
X101014717Y-149214570D01*
X101005072Y-149205885D01*
X100794114Y-148994927D01*
X100785429Y-148985282D01*
X100597666Y-148753414D01*
X100590044Y-148742923D01*
X100427535Y-148492683D01*
X100421065Y-148481477D01*
X100285603Y-148215617D01*
X100280334Y-148203781D01*
X100173407Y-147925228D01*
X100169402Y-147912901D01*
X100092176Y-147624690D01*
X100089484Y-147612022D01*
X100042812Y-147317340D01*
X100041455Y-147304433D01*
X100025670Y-147003243D01*
X100025500Y-146996753D01*
X100025500Y-146878711D01*
X101149500Y-146878711D01*
X101149500Y-147121288D01*
X101181161Y-147361785D01*
X101243947Y-147596104D01*
X101286542Y-147698937D01*
X101336776Y-147820212D01*
X101458064Y-148030289D01*
X101458066Y-148030292D01*
X101458067Y-148030293D01*
X101605733Y-148222736D01*
X101605739Y-148222743D01*
X101777256Y-148394260D01*
X101777262Y-148394265D01*
X101969711Y-148541936D01*
X102179788Y-148663224D01*
X102403900Y-148756054D01*
X102638211Y-148818838D01*
X102818586Y-148842584D01*
X102878711Y-148850500D01*
X102878712Y-148850500D01*
X103121289Y-148850500D01*
X103169388Y-148844167D01*
X103361789Y-148818838D01*
X103596100Y-148756054D01*
X103820212Y-148663224D01*
X104030289Y-148541936D01*
X104222738Y-148394265D01*
X104394265Y-148222738D01*
X104541936Y-148030289D01*
X104663224Y-147820212D01*
X104756054Y-147596100D01*
X104818838Y-147361789D01*
X104850500Y-147121288D01*
X104850500Y-146878712D01*
X104818838Y-146638211D01*
X104756054Y-146403900D01*
X104663224Y-146179788D01*
X104541936Y-145969711D01*
X104481018Y-145890321D01*
X104394266Y-145777263D01*
X104394260Y-145777256D01*
X104222743Y-145605739D01*
X104222736Y-145605733D01*
X104030293Y-145458067D01*
X104030292Y-145458066D01*
X104030289Y-145458064D01*
X103820212Y-145336776D01*
X103784506Y-145321986D01*
X103596104Y-145243947D01*
X103361785Y-145181161D01*
X103121289Y-145149500D01*
X103121288Y-145149500D01*
X102878712Y-145149500D01*
X102878711Y-145149500D01*
X102638214Y-145181161D01*
X102403895Y-145243947D01*
X102179794Y-145336773D01*
X102179785Y-145336777D01*
X101969706Y-145458067D01*
X101777263Y-145605733D01*
X101777256Y-145605739D01*
X101605739Y-145777256D01*
X101605733Y-145777263D01*
X101458067Y-145969706D01*
X101336777Y-146179785D01*
X101336773Y-146179794D01*
X101243947Y-146403895D01*
X101181161Y-146638214D01*
X101149500Y-146878711D01*
X100025500Y-146878711D01*
X100025500Y-144691550D01*
X106820499Y-144691550D01*
X106856219Y-144871119D01*
X106856222Y-144871129D01*
X106926285Y-145040278D01*
X106926286Y-145040280D01*
X107028010Y-145192520D01*
X107028013Y-145192524D01*
X107157475Y-145321986D01*
X107157479Y-145321989D01*
X107309717Y-145423712D01*
X107309718Y-145423712D01*
X107309719Y-145423713D01*
X107309721Y-145423714D01*
X107429644Y-145473387D01*
X107478875Y-145493779D01*
X107478879Y-145493779D01*
X107478880Y-145493780D01*
X107658449Y-145529500D01*
X107658452Y-145529500D01*
X107841550Y-145529500D01*
X107962358Y-145505468D01*
X108021125Y-145493779D01*
X108179537Y-145428163D01*
X108179538Y-145428163D01*
X108190278Y-145423714D01*
X108190283Y-145423712D01*
X108342521Y-145321989D01*
X108471989Y-145192521D01*
X108573712Y-145040283D01*
X108643779Y-144871125D01*
X108643779Y-144871124D01*
X108646110Y-144865497D01*
X108647709Y-144866159D01*
X108673779Y-144822667D01*
X108850000Y-144646446D01*
X108850000Y-144652661D01*
X108877259Y-144754394D01*
X108929920Y-144845606D01*
X109004394Y-144920080D01*
X109095606Y-144972741D01*
X109197339Y-145000000D01*
X109203553Y-145000000D01*
X108613568Y-145589983D01*
X108613568Y-145589984D01*
X108634165Y-145604949D01*
X108798956Y-145688915D01*
X108798959Y-145688916D01*
X108974852Y-145746066D01*
X109157527Y-145775000D01*
X109342473Y-145775000D01*
X109525147Y-145746066D01*
X109695577Y-145690691D01*
X116549500Y-145690691D01*
X116549500Y-145809309D01*
X116580201Y-145923886D01*
X116639511Y-146026613D01*
X116723387Y-146110489D01*
X116826114Y-146169799D01*
X116940691Y-146200500D01*
X116940694Y-146200500D01*
X117059306Y-146200500D01*
X117059309Y-146200500D01*
X117173886Y-146169799D01*
X117276613Y-146110489D01*
X117360489Y-146026613D01*
X117419799Y-145923886D01*
X117450500Y-145809309D01*
X117450500Y-145690691D01*
X132549500Y-145690691D01*
X132549500Y-145809309D01*
X132580201Y-145923886D01*
X132639511Y-146026613D01*
X132723387Y-146110489D01*
X132826114Y-146169799D01*
X132940691Y-146200500D01*
X132940694Y-146200500D01*
X133059306Y-146200500D01*
X133059309Y-146200500D01*
X133173886Y-146169799D01*
X133276613Y-146110489D01*
X133360489Y-146026613D01*
X133419799Y-145923886D01*
X133450500Y-145809309D01*
X133450500Y-145690691D01*
X133419799Y-145576114D01*
X133360489Y-145473387D01*
X133276613Y-145389511D01*
X133173886Y-145330201D01*
X133059309Y-145299500D01*
X132940691Y-145299500D01*
X132826114Y-145330201D01*
X132826112Y-145330201D01*
X132826112Y-145330202D01*
X132723387Y-145389511D01*
X132723384Y-145389513D01*
X132639513Y-145473384D01*
X132639511Y-145473387D01*
X132580201Y-145576114D01*
X132549500Y-145690691D01*
X117450500Y-145690691D01*
X117419799Y-145576114D01*
X117360489Y-145473387D01*
X117276613Y-145389511D01*
X117173886Y-145330201D01*
X117059309Y-145299500D01*
X116940691Y-145299500D01*
X116826114Y-145330201D01*
X116826112Y-145330201D01*
X116826112Y-145330202D01*
X116723387Y-145389511D01*
X116723384Y-145389513D01*
X116639513Y-145473384D01*
X116639511Y-145473387D01*
X116580201Y-145576114D01*
X116549500Y-145690691D01*
X109695577Y-145690691D01*
X109701040Y-145688916D01*
X109701043Y-145688915D01*
X109865836Y-145604948D01*
X109886430Y-145589983D01*
X109886431Y-145589983D01*
X109296448Y-145000000D01*
X109302661Y-145000000D01*
X109404394Y-144972741D01*
X109495606Y-144920080D01*
X109570080Y-144845606D01*
X109622741Y-144754394D01*
X109650000Y-144652661D01*
X109650000Y-144646447D01*
X110239983Y-145236430D01*
X110239984Y-145236430D01*
X110254942Y-145215845D01*
X110254947Y-145215836D01*
X110338915Y-145051043D01*
X110338916Y-145051040D01*
X110396066Y-144875147D01*
X110425000Y-144692473D01*
X110425000Y-144507526D01*
X110396066Y-144324852D01*
X110338916Y-144148959D01*
X110338915Y-144148956D01*
X110254949Y-143984165D01*
X110239983Y-143963568D01*
X109650000Y-144553551D01*
X109650000Y-144547339D01*
X109622741Y-144445606D01*
X109570080Y-144354394D01*
X109495606Y-144279920D01*
X109404394Y-144227259D01*
X109302661Y-144200000D01*
X109296447Y-144200000D01*
X109886431Y-143610016D01*
X109886430Y-143610015D01*
X109865834Y-143595050D01*
X109773188Y-143547844D01*
X114150000Y-143547844D01*
X114156401Y-143607372D01*
X114156403Y-143607379D01*
X114206645Y-143742086D01*
X114206649Y-143742093D01*
X114292809Y-143857187D01*
X114292812Y-143857190D01*
X114407906Y-143943350D01*
X114407913Y-143943354D01*
X114542620Y-143993596D01*
X114542627Y-143993598D01*
X114602155Y-143999999D01*
X114602172Y-144000000D01*
X114650000Y-144000000D01*
X114650000Y-141950000D01*
X114150000Y-141950000D01*
X114150000Y-143547844D01*
X109773188Y-143547844D01*
X109701043Y-143511084D01*
X109701040Y-143511083D01*
X109525147Y-143453933D01*
X109342473Y-143425000D01*
X109157527Y-143425000D01*
X108974852Y-143453933D01*
X108798959Y-143511083D01*
X108798956Y-143511084D01*
X108634167Y-143595049D01*
X108613568Y-143610015D01*
X109203554Y-144200000D01*
X109197339Y-144200000D01*
X109095606Y-144227259D01*
X109004394Y-144279920D01*
X108929920Y-144354394D01*
X108877259Y-144445606D01*
X108850000Y-144547339D01*
X108850000Y-144553553D01*
X108673779Y-144377332D01*
X108647709Y-144333839D01*
X108646110Y-144334502D01*
X108573714Y-144159721D01*
X108573713Y-144159719D01*
X108566523Y-144148959D01*
X108471989Y-144007479D01*
X108471986Y-144007475D01*
X108342524Y-143878013D01*
X108342520Y-143878010D01*
X108190280Y-143776286D01*
X108179533Y-143771835D01*
X108179531Y-143771834D01*
X108021129Y-143706222D01*
X108021119Y-143706219D01*
X107841550Y-143670500D01*
X107841548Y-143670500D01*
X107658452Y-143670500D01*
X107658450Y-143670500D01*
X107478880Y-143706219D01*
X107478870Y-143706222D01*
X107309721Y-143776285D01*
X107309719Y-143776286D01*
X107157479Y-143878010D01*
X107157475Y-143878013D01*
X107028013Y-144007475D01*
X107028010Y-144007479D01*
X106926286Y-144159719D01*
X106926285Y-144159721D01*
X106856222Y-144328870D01*
X106856219Y-144328880D01*
X106820500Y-144508449D01*
X106820500Y-144508452D01*
X106820500Y-144691548D01*
X106820500Y-144691550D01*
X106820499Y-144691550D01*
X100025500Y-144691550D01*
X100025500Y-139290000D01*
X101350138Y-139290000D01*
X102153012Y-139290000D01*
X102135795Y-139299940D01*
X102079940Y-139355795D01*
X102040444Y-139424204D01*
X102020000Y-139500504D01*
X102020000Y-139579496D01*
X102040444Y-139655796D01*
X102079940Y-139724205D01*
X102135795Y-139780060D01*
X102153012Y-139790000D01*
X101350138Y-139790000D01*
X101358430Y-139831690D01*
X101358430Y-139831692D01*
X101433807Y-140013671D01*
X101433814Y-140013684D01*
X101543248Y-140177462D01*
X101543251Y-140177466D01*
X101682533Y-140316748D01*
X101682537Y-140316751D01*
X101846315Y-140426185D01*
X101846328Y-140426192D01*
X102028306Y-140501569D01*
X102028318Y-140501572D01*
X102221504Y-140539999D01*
X102221508Y-140540000D01*
X102470000Y-140540000D01*
X102470000Y-139840000D01*
X102970000Y-139840000D01*
X102970000Y-140540000D01*
X103218492Y-140540000D01*
X103218495Y-140539999D01*
X103411681Y-140501572D01*
X103411693Y-140501569D01*
X103593671Y-140426192D01*
X103593684Y-140426185D01*
X103757462Y-140316751D01*
X103757466Y-140316748D01*
X103896748Y-140177466D01*
X103896751Y-140177462D01*
X104006185Y-140013684D01*
X104006192Y-140013671D01*
X104081569Y-139831692D01*
X104081569Y-139831690D01*
X104089862Y-139790000D01*
X103286988Y-139790000D01*
X103304205Y-139780060D01*
X103360060Y-139724205D01*
X103399556Y-139655796D01*
X103420000Y-139579496D01*
X103420000Y-139500504D01*
X103399556Y-139424204D01*
X103360060Y-139355795D01*
X103304205Y-139299940D01*
X103286988Y-139290000D01*
X104089862Y-139290000D01*
X105380138Y-139290000D01*
X106183012Y-139290000D01*
X106165795Y-139299940D01*
X106109940Y-139355795D01*
X106070444Y-139424204D01*
X106050000Y-139500504D01*
X106050000Y-139579496D01*
X106070444Y-139655796D01*
X106109940Y-139724205D01*
X106165795Y-139780060D01*
X106183012Y-139790000D01*
X105380138Y-139790000D01*
X105388430Y-139831690D01*
X105388430Y-139831692D01*
X105463807Y-140013671D01*
X105463814Y-140013684D01*
X105573248Y-140177462D01*
X105573251Y-140177466D01*
X105712533Y-140316748D01*
X105712537Y-140316751D01*
X105876315Y-140426185D01*
X105876328Y-140426192D01*
X106058306Y-140501569D01*
X106058318Y-140501572D01*
X106251504Y-140539999D01*
X106251508Y-140540000D01*
X106650000Y-140540000D01*
X106650000Y-139840000D01*
X107150000Y-139840000D01*
X107150000Y-140540000D01*
X107548492Y-140540000D01*
X107548495Y-140539999D01*
X107741681Y-140501572D01*
X107741693Y-140501569D01*
X107923671Y-140426192D01*
X107923684Y-140426185D01*
X108087462Y-140316751D01*
X108087466Y-140316748D01*
X108226748Y-140177466D01*
X108226751Y-140177462D01*
X108336185Y-140013684D01*
X108336192Y-140013672D01*
X108361673Y-139952155D01*
X114150000Y-139952155D01*
X114150000Y-141550000D01*
X114650000Y-141550000D01*
X114650000Y-139500000D01*
X114602155Y-139500000D01*
X114542627Y-139506401D01*
X114542620Y-139506403D01*
X114407913Y-139556645D01*
X114407906Y-139556649D01*
X114292812Y-139642809D01*
X114292809Y-139642812D01*
X114206649Y-139757906D01*
X114206645Y-139757913D01*
X114156403Y-139892620D01*
X114156401Y-139892627D01*
X114150000Y-139952155D01*
X108361673Y-139952155D01*
X108382696Y-139901399D01*
X108382696Y-139901398D01*
X108411570Y-139831689D01*
X108419862Y-139790000D01*
X107616988Y-139790000D01*
X107634205Y-139780060D01*
X107690060Y-139724205D01*
X107729556Y-139655796D01*
X107750000Y-139579496D01*
X107750000Y-139500504D01*
X107729556Y-139424204D01*
X107690060Y-139355795D01*
X107634205Y-139299940D01*
X107616988Y-139290000D01*
X108419862Y-139290000D01*
X108411569Y-139248309D01*
X108411569Y-139248307D01*
X108336192Y-139066328D01*
X108336185Y-139066315D01*
X108226751Y-138902537D01*
X108226748Y-138902533D01*
X108087466Y-138763251D01*
X108087462Y-138763248D01*
X107923684Y-138653814D01*
X107923671Y-138653807D01*
X107741693Y-138578430D01*
X107741681Y-138578427D01*
X107548495Y-138540000D01*
X107150000Y-138540000D01*
X107150000Y-139240000D01*
X106650000Y-139240000D01*
X106650000Y-138701784D01*
X106669685Y-138634745D01*
X106712000Y-138594397D01*
X106753365Y-138570515D01*
X106860515Y-138463365D01*
X106873795Y-138440364D01*
X106881721Y-138426637D01*
X106930272Y-138342543D01*
X106936281Y-138332135D01*
X106975500Y-138185766D01*
X106975500Y-138034234D01*
X106936281Y-137887865D01*
X106860515Y-137756635D01*
X106753365Y-137649485D01*
X106687750Y-137611602D01*
X106622136Y-137573719D01*
X106521193Y-137546672D01*
X106475766Y-137534500D01*
X106324234Y-137534500D01*
X106177863Y-137573719D01*
X106046635Y-137649485D01*
X106046632Y-137649487D01*
X105939487Y-137756632D01*
X105939485Y-137756635D01*
X105863719Y-137887863D01*
X105843076Y-137964906D01*
X105824500Y-138034234D01*
X105824500Y-138185766D01*
X105835591Y-138227160D01*
X105863719Y-138332136D01*
X105874039Y-138350010D01*
X105939485Y-138463365D01*
X105939486Y-138463366D01*
X105943549Y-138470403D01*
X105941346Y-138471674D01*
X105961959Y-138524983D01*
X105947923Y-138593428D01*
X105899112Y-138643420D01*
X105885845Y-138649866D01*
X105876324Y-138653809D01*
X105876315Y-138653814D01*
X105712537Y-138763248D01*
X105712533Y-138763251D01*
X105573251Y-138902533D01*
X105573248Y-138902537D01*
X105463814Y-139066315D01*
X105463807Y-139066328D01*
X105388430Y-139248307D01*
X105388430Y-139248309D01*
X105380138Y-139290000D01*
X104089862Y-139290000D01*
X104081569Y-139248309D01*
X104081569Y-139248307D01*
X104006192Y-139066328D01*
X104006185Y-139066315D01*
X103896751Y-138902537D01*
X103896748Y-138902533D01*
X103757466Y-138763251D01*
X103757462Y-138763248D01*
X103593684Y-138653814D01*
X103593671Y-138653807D01*
X103411693Y-138578430D01*
X103411681Y-138578427D01*
X103218495Y-138540000D01*
X102970000Y-138540000D01*
X102970000Y-139240000D01*
X102470000Y-139240000D01*
X102470000Y-138540000D01*
X102221504Y-138540000D01*
X102028318Y-138578427D01*
X102028306Y-138578430D01*
X101846328Y-138653807D01*
X101846315Y-138653814D01*
X101682537Y-138763248D01*
X101682533Y-138763251D01*
X101543251Y-138902533D01*
X101543248Y-138902537D01*
X101433814Y-139066315D01*
X101433807Y-139066328D01*
X101358430Y-139248307D01*
X101358430Y-139248309D01*
X101350138Y-139290000D01*
X100025500Y-139290000D01*
X100025500Y-130650000D01*
X101350138Y-130650000D01*
X102153012Y-130650000D01*
X102135795Y-130659940D01*
X102079940Y-130715795D01*
X102040444Y-130784204D01*
X102020000Y-130860504D01*
X102020000Y-130939496D01*
X102040444Y-131015796D01*
X102079940Y-131084205D01*
X102135795Y-131140060D01*
X102153012Y-131150000D01*
X101350138Y-131150000D01*
X101358430Y-131191690D01*
X101358430Y-131191692D01*
X101433807Y-131373671D01*
X101433814Y-131373684D01*
X101543248Y-131537462D01*
X101543251Y-131537466D01*
X101682533Y-131676748D01*
X101682537Y-131676751D01*
X101846315Y-131786185D01*
X101846328Y-131786192D01*
X102028306Y-131861569D01*
X102028318Y-131861572D01*
X102221504Y-131899999D01*
X102221508Y-131900000D01*
X102470000Y-131900000D01*
X102470000Y-131200000D01*
X102970000Y-131200000D01*
X102970000Y-131900000D01*
X103218492Y-131900000D01*
X103218495Y-131899999D01*
X103411681Y-131861572D01*
X103411693Y-131861569D01*
X103593671Y-131786192D01*
X103593684Y-131786185D01*
X103757462Y-131676751D01*
X103757466Y-131676748D01*
X103896748Y-131537466D01*
X103896751Y-131537462D01*
X104006185Y-131373684D01*
X104006192Y-131373671D01*
X104081569Y-131191692D01*
X104081569Y-131191690D01*
X104089862Y-131150000D01*
X103286988Y-131150000D01*
X103304205Y-131140060D01*
X103360060Y-131084205D01*
X103399556Y-131015796D01*
X103420000Y-130939496D01*
X103420000Y-130860504D01*
X103399556Y-130784204D01*
X103360060Y-130715795D01*
X103304205Y-130659940D01*
X103286988Y-130650000D01*
X104089862Y-130650000D01*
X105380138Y-130650000D01*
X106183012Y-130650000D01*
X106165795Y-130659940D01*
X106109940Y-130715795D01*
X106070444Y-130784204D01*
X106050000Y-130860504D01*
X106050000Y-130939496D01*
X106070444Y-131015796D01*
X106109940Y-131084205D01*
X106165795Y-131140060D01*
X106183012Y-131150000D01*
X105380138Y-131150000D01*
X105388430Y-131191690D01*
X105388430Y-131191692D01*
X105463807Y-131373671D01*
X105463814Y-131373684D01*
X105573248Y-131537462D01*
X105573251Y-131537466D01*
X105712533Y-131676748D01*
X105712537Y-131676751D01*
X105876315Y-131786185D01*
X105876328Y-131786192D01*
X105885838Y-131790131D01*
X105940243Y-131833970D01*
X105962310Y-131900264D01*
X105945033Y-131967963D01*
X105941350Y-131973405D01*
X105863719Y-132107863D01*
X105824500Y-132254234D01*
X105824500Y-132405765D01*
X105863719Y-132552136D01*
X105885250Y-132589428D01*
X105939485Y-132683365D01*
X106046635Y-132790515D01*
X106177865Y-132866281D01*
X106324234Y-132905500D01*
X106324236Y-132905500D01*
X106475764Y-132905500D01*
X106475766Y-132905500D01*
X106622135Y-132866281D01*
X106753365Y-132790515D01*
X106860515Y-132683365D01*
X106936281Y-132552135D01*
X106975500Y-132405766D01*
X106975500Y-132254234D01*
X106936281Y-132107865D01*
X106860515Y-131976635D01*
X106753365Y-131869485D01*
X106739654Y-131861569D01*
X106711998Y-131845601D01*
X106663784Y-131795033D01*
X106650000Y-131738215D01*
X106650000Y-131200000D01*
X107150000Y-131200000D01*
X107150000Y-131900000D01*
X107548492Y-131900000D01*
X107548495Y-131899999D01*
X107741681Y-131861572D01*
X107741693Y-131861569D01*
X107923671Y-131786192D01*
X107923684Y-131786185D01*
X108087462Y-131676751D01*
X108087466Y-131676748D01*
X108226748Y-131537466D01*
X108226751Y-131537462D01*
X108336185Y-131373684D01*
X108336192Y-131373671D01*
X108411569Y-131191692D01*
X108411569Y-131191690D01*
X108419862Y-131150000D01*
X107616988Y-131150000D01*
X107634205Y-131140060D01*
X107690060Y-131084205D01*
X107729556Y-131015796D01*
X107750000Y-130939496D01*
X107750000Y-130860504D01*
X107729556Y-130784204D01*
X107690060Y-130715795D01*
X107634205Y-130659940D01*
X107616988Y-130650000D01*
X108419862Y-130650000D01*
X108411569Y-130608309D01*
X108411569Y-130608307D01*
X108336192Y-130426328D01*
X108336185Y-130426315D01*
X108226751Y-130262537D01*
X108226748Y-130262533D01*
X108087466Y-130123251D01*
X108087462Y-130123248D01*
X107923684Y-130013814D01*
X107923671Y-130013807D01*
X107741693Y-129938430D01*
X107741681Y-129938427D01*
X107548495Y-129900000D01*
X107150000Y-129900000D01*
X107150000Y-130600000D01*
X106650000Y-130600000D01*
X106650000Y-129900000D01*
X106251504Y-129900000D01*
X106058318Y-129938427D01*
X106058306Y-129938430D01*
X105876328Y-130013807D01*
X105876315Y-130013814D01*
X105712537Y-130123248D01*
X105712533Y-130123251D01*
X105573251Y-130262533D01*
X105573248Y-130262537D01*
X105463814Y-130426315D01*
X105463807Y-130426328D01*
X105388430Y-130608307D01*
X105388430Y-130608309D01*
X105380138Y-130650000D01*
X104089862Y-130650000D01*
X104081569Y-130608309D01*
X104081569Y-130608307D01*
X104006192Y-130426328D01*
X104006185Y-130426315D01*
X103896751Y-130262537D01*
X103896748Y-130262533D01*
X103757466Y-130123251D01*
X103757462Y-130123248D01*
X103593684Y-130013814D01*
X103593671Y-130013807D01*
X103411693Y-129938430D01*
X103411681Y-129938427D01*
X103218495Y-129900000D01*
X102970000Y-129900000D01*
X102970000Y-130600000D01*
X102470000Y-130600000D01*
X102470000Y-129900000D01*
X102221504Y-129900000D01*
X102028318Y-129938427D01*
X102028306Y-129938430D01*
X101846328Y-130013807D01*
X101846315Y-130013814D01*
X101682537Y-130123248D01*
X101682533Y-130123251D01*
X101543251Y-130262533D01*
X101543248Y-130262537D01*
X101433814Y-130426315D01*
X101433807Y-130426328D01*
X101358430Y-130608307D01*
X101358430Y-130608309D01*
X101350138Y-130650000D01*
X100025500Y-130650000D01*
X100025500Y-121642155D01*
X103150000Y-121642155D01*
X103150000Y-122290000D01*
X104066988Y-122290000D01*
X104034075Y-122347007D01*
X104000000Y-122474174D01*
X104000000Y-122605826D01*
X104034075Y-122732993D01*
X104066988Y-122790000D01*
X103150000Y-122790000D01*
X103150000Y-123437844D01*
X103156401Y-123497372D01*
X103156403Y-123497379D01*
X103206645Y-123632086D01*
X103206649Y-123632093D01*
X103292809Y-123747187D01*
X103292812Y-123747190D01*
X103407906Y-123833350D01*
X103407913Y-123833354D01*
X103542620Y-123883596D01*
X103542627Y-123883598D01*
X103602155Y-123889999D01*
X103602172Y-123890000D01*
X104250000Y-123890000D01*
X104250000Y-122973012D01*
X104307007Y-123005925D01*
X104434174Y-123040000D01*
X104565826Y-123040000D01*
X104692993Y-123005925D01*
X104750000Y-122973012D01*
X104750000Y-123890000D01*
X105397828Y-123890000D01*
X105397844Y-123889999D01*
X105457372Y-123883598D01*
X105457379Y-123883596D01*
X105592086Y-123833354D01*
X105592093Y-123833350D01*
X105707187Y-123747190D01*
X105707190Y-123747187D01*
X105793350Y-123632093D01*
X105793354Y-123632086D01*
X105843596Y-123497379D01*
X105843598Y-123497372D01*
X105849999Y-123437844D01*
X105850000Y-123437827D01*
X105850000Y-122790000D01*
X104933012Y-122790000D01*
X104965925Y-122732993D01*
X105000000Y-122605826D01*
X105000000Y-122474174D01*
X104965925Y-122347007D01*
X104933012Y-122290000D01*
X105850000Y-122290000D01*
X105850000Y-121642172D01*
X105849999Y-121642155D01*
X105843598Y-121582627D01*
X105843596Y-121582620D01*
X105793354Y-121447913D01*
X105793350Y-121447906D01*
X105707190Y-121332812D01*
X105707187Y-121332809D01*
X105592093Y-121246649D01*
X105592086Y-121246645D01*
X105457379Y-121196403D01*
X105457372Y-121196401D01*
X105397844Y-121190000D01*
X105113861Y-121190000D01*
X105046822Y-121170315D01*
X105001067Y-121117511D01*
X104991123Y-121048353D01*
X105020148Y-120984797D01*
X105057566Y-120955515D01*
X105078884Y-120944653D01*
X105219533Y-120842465D01*
X105342465Y-120719533D01*
X105444653Y-120578884D01*
X105523580Y-120423981D01*
X105577303Y-120258638D01*
X105604500Y-120086926D01*
X105604500Y-119913074D01*
X105577303Y-119741362D01*
X105577302Y-119741358D01*
X105577302Y-119741357D01*
X105523581Y-119576021D01*
X105444652Y-119421115D01*
X105342465Y-119280467D01*
X105219533Y-119157535D01*
X105078884Y-119055347D01*
X104923978Y-118976418D01*
X104758641Y-118922697D01*
X104629854Y-118902299D01*
X104586926Y-118895500D01*
X104413074Y-118895500D01*
X104355836Y-118904565D01*
X104241360Y-118922697D01*
X104241357Y-118922697D01*
X104076021Y-118976418D01*
X103921115Y-119055347D01*
X103840869Y-119113649D01*
X103780467Y-119157535D01*
X103780465Y-119157537D01*
X103780464Y-119157537D01*
X103657537Y-119280464D01*
X103657537Y-119280465D01*
X103657535Y-119280467D01*
X103613649Y-119340869D01*
X103555347Y-119421115D01*
X103476418Y-119576021D01*
X103422697Y-119741357D01*
X103422697Y-119741360D01*
X103395500Y-119913074D01*
X103395500Y-120086925D01*
X103422697Y-120258639D01*
X103422697Y-120258642D01*
X103476418Y-120423978D01*
X103476420Y-120423981D01*
X103555347Y-120578884D01*
X103657535Y-120719533D01*
X103780467Y-120842465D01*
X103921116Y-120944653D01*
X103942434Y-120955515D01*
X103993230Y-121003490D01*
X104010025Y-121071311D01*
X103987487Y-121137446D01*
X103932772Y-121180897D01*
X103886139Y-121190000D01*
X103602155Y-121190000D01*
X103542627Y-121196401D01*
X103542620Y-121196403D01*
X103407913Y-121246645D01*
X103407906Y-121246649D01*
X103292812Y-121332809D01*
X103292809Y-121332812D01*
X103206649Y-121447906D01*
X103206645Y-121447913D01*
X103156403Y-121582620D01*
X103156401Y-121582627D01*
X103150000Y-121642155D01*
X100025500Y-121642155D01*
X100025500Y-117373074D01*
X103395500Y-117373074D01*
X103395500Y-117546925D01*
X103422697Y-117718639D01*
X103422697Y-117718642D01*
X103476418Y-117883978D01*
X103476420Y-117883981D01*
X103555347Y-118038884D01*
X103657535Y-118179533D01*
X103780467Y-118302465D01*
X103921116Y-118404653D01*
X104076019Y-118483580D01*
X104076021Y-118483581D01*
X104241358Y-118537302D01*
X104241359Y-118537302D01*
X104241362Y-118537303D01*
X104413074Y-118564500D01*
X104413075Y-118564500D01*
X104586925Y-118564500D01*
X104586926Y-118564500D01*
X104758638Y-118537303D01*
X104758641Y-118537302D01*
X104758642Y-118537302D01*
X104923978Y-118483581D01*
X104923978Y-118483580D01*
X104923981Y-118483580D01*
X105078884Y-118404653D01*
X105219533Y-118302465D01*
X105342465Y-118179533D01*
X105444653Y-118038884D01*
X105523580Y-117883981D01*
X105577303Y-117718638D01*
X105604500Y-117546926D01*
X105604500Y-117373074D01*
X105577303Y-117201362D01*
X105577302Y-117201358D01*
X105577302Y-117201357D01*
X105523581Y-117036021D01*
X105444652Y-116881115D01*
X105342465Y-116740467D01*
X105219533Y-116617535D01*
X105078884Y-116515347D01*
X104923978Y-116436418D01*
X104758641Y-116382697D01*
X104629854Y-116362299D01*
X104586926Y-116355500D01*
X104413074Y-116355500D01*
X104355836Y-116364565D01*
X104241360Y-116382697D01*
X104241357Y-116382697D01*
X104076021Y-116436418D01*
X103921115Y-116515347D01*
X103840869Y-116573649D01*
X103780467Y-116617535D01*
X103780465Y-116617537D01*
X103780464Y-116617537D01*
X103657537Y-116740464D01*
X103657537Y-116740465D01*
X103657535Y-116740467D01*
X103613649Y-116800869D01*
X103555347Y-116881115D01*
X103476418Y-117036021D01*
X103422697Y-117201357D01*
X103422697Y-117201360D01*
X103395500Y-117373074D01*
X100025500Y-117373074D01*
X100025500Y-112293074D01*
X103395500Y-112293074D01*
X103395500Y-112466926D01*
X103399152Y-112489982D01*
X103422697Y-112638639D01*
X103422697Y-112638642D01*
X103476418Y-112803978D01*
X103510339Y-112870551D01*
X103555347Y-112958884D01*
X103657535Y-113099533D01*
X103780467Y-113222465D01*
X103921116Y-113324653D01*
X104029764Y-113380012D01*
X104076021Y-113403581D01*
X104241358Y-113457302D01*
X104241359Y-113457302D01*
X104241362Y-113457303D01*
X104413074Y-113484500D01*
X104413075Y-113484500D01*
X104586925Y-113484500D01*
X104586926Y-113484500D01*
X104758638Y-113457303D01*
X104923981Y-113403580D01*
X104923991Y-113403574D01*
X104925874Y-113402963D01*
X104995715Y-113400967D01*
X105051874Y-113433213D01*
X105972480Y-114353819D01*
X106005965Y-114415142D01*
X106000981Y-114484834D01*
X105959109Y-114540767D01*
X105893645Y-114565184D01*
X105884799Y-114565500D01*
X105634970Y-114565500D01*
X105567931Y-114545815D01*
X105524485Y-114497795D01*
X105482371Y-114415142D01*
X105444653Y-114341116D01*
X105342465Y-114200467D01*
X105219533Y-114077535D01*
X105078884Y-113975347D01*
X104923978Y-113896418D01*
X104758641Y-113842697D01*
X104629854Y-113822299D01*
X104586926Y-113815500D01*
X104413074Y-113815500D01*
X104355836Y-113824565D01*
X104241360Y-113842697D01*
X104241357Y-113842697D01*
X104076021Y-113896418D01*
X103921115Y-113975347D01*
X103840869Y-114033649D01*
X103780467Y-114077535D01*
X103780465Y-114077537D01*
X103780464Y-114077537D01*
X103657537Y-114200464D01*
X103657537Y-114200465D01*
X103657535Y-114200467D01*
X103613649Y-114260869D01*
X103555347Y-114341115D01*
X103476418Y-114496021D01*
X103422697Y-114661357D01*
X103422697Y-114661360D01*
X103395500Y-114833074D01*
X103395500Y-115006925D01*
X103422697Y-115178639D01*
X103422697Y-115178642D01*
X103476418Y-115343978D01*
X103476420Y-115343981D01*
X103555347Y-115498884D01*
X103657535Y-115639533D01*
X103780467Y-115762465D01*
X103921116Y-115864653D01*
X104076019Y-115943580D01*
X104076021Y-115943581D01*
X104241358Y-115997302D01*
X104241359Y-115997302D01*
X104241362Y-115997303D01*
X104413074Y-116024500D01*
X104413075Y-116024500D01*
X104586925Y-116024500D01*
X104586926Y-116024500D01*
X104758638Y-115997303D01*
X104758641Y-115997302D01*
X104758642Y-115997302D01*
X104923978Y-115943581D01*
X104923978Y-115943580D01*
X104923981Y-115943580D01*
X105078884Y-115864653D01*
X105219533Y-115762465D01*
X105342465Y-115639533D01*
X105444653Y-115498884D01*
X105523580Y-115343981D01*
X105523579Y-115343981D01*
X105524485Y-115342205D01*
X105572460Y-115291409D01*
X105634970Y-115274500D01*
X106274699Y-115274500D01*
X106341738Y-115294185D01*
X106362380Y-115310819D01*
X118035380Y-126983819D01*
X118068865Y-127045142D01*
X118063881Y-127114834D01*
X118022009Y-127170767D01*
X117956545Y-127195184D01*
X117947699Y-127195500D01*
X114093341Y-127195500D01*
X114093325Y-127195499D01*
X114085729Y-127195499D01*
X113992386Y-127195499D01*
X113902226Y-127219658D01*
X113902219Y-127219661D01*
X113821395Y-127266324D01*
X113821387Y-127266330D01*
X106504365Y-134583351D01*
X106443042Y-134616836D01*
X106392497Y-134617288D01*
X106383518Y-134615502D01*
X106383514Y-134615502D01*
X106254588Y-134615502D01*
X106254583Y-134615502D01*
X106128147Y-134640651D01*
X106128138Y-134640654D01*
X106009033Y-134689988D01*
X106009031Y-134689989D01*
X105901831Y-134761618D01*
X105901827Y-134761621D01*
X105810670Y-134852778D01*
X105810667Y-134852782D01*
X105739038Y-134959982D01*
X105739037Y-134959984D01*
X105689703Y-135079089D01*
X105689700Y-135079098D01*
X105664551Y-135205534D01*
X105664551Y-135334469D01*
X105689700Y-135460905D01*
X105689703Y-135460914D01*
X105739037Y-135580019D01*
X105739038Y-135580021D01*
X105813596Y-135691604D01*
X105834474Y-135758282D01*
X105815990Y-135825662D01*
X105798180Y-135848171D01*
X105793719Y-135852632D01*
X105793713Y-135852639D01*
X105722084Y-135959839D01*
X105722083Y-135959841D01*
X105672749Y-136078946D01*
X105672746Y-136078955D01*
X105647597Y-136205391D01*
X105647597Y-136334326D01*
X105672746Y-136460762D01*
X105672749Y-136460771D01*
X105722083Y-136579876D01*
X105722084Y-136579878D01*
X105793713Y-136687078D01*
X105793716Y-136687082D01*
X105884873Y-136778239D01*
X105884877Y-136778242D01*
X105992075Y-136849870D01*
X105992076Y-136849870D01*
X105992077Y-136849871D01*
X105992079Y-136849872D01*
X106041096Y-136870175D01*
X106111186Y-136899207D01*
X106111188Y-136899207D01*
X106111193Y-136899209D01*
X106237629Y-136924358D01*
X106237633Y-136924359D01*
X106237634Y-136924359D01*
X106366561Y-136924359D01*
X106366562Y-136924358D01*
X106419448Y-136913839D01*
X106493000Y-136899209D01*
X106493003Y-136899207D01*
X106493008Y-136899207D01*
X106612119Y-136849870D01*
X106719317Y-136778242D01*
X106810480Y-136687079D01*
X106882108Y-136579881D01*
X106931445Y-136460770D01*
X106931509Y-136460451D01*
X106949678Y-136369108D01*
X106956597Y-136334322D01*
X106956597Y-136205396D01*
X106956217Y-136203486D01*
X106956308Y-136202462D01*
X106956000Y-136199329D01*
X106956593Y-136199270D01*
X106962438Y-136133895D01*
X106990146Y-136091608D01*
X107303722Y-135778034D01*
X107350392Y-135697198D01*
X107374551Y-135607037D01*
X107374551Y-135513695D01*
X107374551Y-135334306D01*
X107394236Y-135267267D01*
X107410870Y-135246625D01*
X114315676Y-128341819D01*
X114376999Y-128308334D01*
X114403357Y-128305500D01*
X134062769Y-128305500D01*
X134062771Y-128305500D01*
X134152932Y-128281341D01*
X134233768Y-128234671D01*
X134517228Y-127951210D01*
X134578549Y-127917727D01*
X134648240Y-127922711D01*
X134673797Y-127935791D01*
X134739975Y-127980009D01*
X134739982Y-127980013D01*
X134819385Y-128012902D01*
X134859089Y-128029348D01*
X134859091Y-128029348D01*
X134859096Y-128029350D01*
X134985532Y-128054499D01*
X134985536Y-128054500D01*
X134985537Y-128054500D01*
X135114464Y-128054500D01*
X135114465Y-128054499D01*
X135167004Y-128044049D01*
X135240903Y-128029350D01*
X135240906Y-128029348D01*
X135240911Y-128029348D01*
X135360022Y-127980011D01*
X135441612Y-127925493D01*
X135508288Y-127904616D01*
X135575668Y-127923100D01*
X135622359Y-127975079D01*
X135633535Y-128044049D01*
X135605650Y-128108113D01*
X135598183Y-128116277D01*
X133889725Y-129824734D01*
X133828402Y-129858219D01*
X133758710Y-129853235D01*
X133733153Y-129840155D01*
X133702970Y-129819987D01*
X133702968Y-129819986D01*
X133583863Y-129770652D01*
X133583854Y-129770649D01*
X133457418Y-129745500D01*
X133457414Y-129745500D01*
X133328488Y-129745500D01*
X133328483Y-129745500D01*
X133202047Y-129770649D01*
X133202038Y-129770652D01*
X133082933Y-129819986D01*
X133082931Y-129819987D01*
X132975731Y-129891616D01*
X132975727Y-129891619D01*
X132884570Y-129982776D01*
X132884567Y-129982780D01*
X132812938Y-130089980D01*
X132812937Y-130089982D01*
X132763603Y-130209087D01*
X132763600Y-130209096D01*
X132738451Y-130335532D01*
X132738451Y-130464467D01*
X132763600Y-130590903D01*
X132763603Y-130590912D01*
X132812937Y-130710017D01*
X132812938Y-130710019D01*
X132884567Y-130817219D01*
X132884570Y-130817223D01*
X132975727Y-130908380D01*
X132975731Y-130908383D01*
X133082929Y-130980011D01*
X133082930Y-130980011D01*
X133087994Y-130983395D01*
X133086453Y-130985699D01*
X133127799Y-131026325D01*
X133143249Y-131094465D01*
X133119407Y-131160142D01*
X133107173Y-131174386D01*
X128572380Y-135709181D01*
X128545452Y-135723884D01*
X128519634Y-135740477D01*
X128513433Y-135741368D01*
X128511057Y-135742666D01*
X128484699Y-135745500D01*
X128341686Y-135745500D01*
X128274647Y-135725815D01*
X128228892Y-135673011D01*
X128224645Y-135662456D01*
X128215897Y-135637456D01*
X128206369Y-135610227D01*
X128159557Y-135546800D01*
X128125010Y-135499989D01*
X128026687Y-135427424D01*
X128014773Y-135418631D01*
X128014771Y-135418630D01*
X127885458Y-135373380D01*
X127885446Y-135373378D01*
X127854753Y-135370500D01*
X127345257Y-135370500D01*
X127329900Y-135371940D01*
X127314549Y-135373379D01*
X127314546Y-135373379D01*
X127314544Y-135373380D01*
X127185228Y-135418630D01*
X127074989Y-135499989D01*
X126993630Y-135610228D01*
X126948380Y-135739541D01*
X126948379Y-135739549D01*
X126945500Y-135770246D01*
X126945500Y-136201798D01*
X126936855Y-136231237D01*
X126930332Y-136261225D01*
X126926577Y-136266240D01*
X126925815Y-136268837D01*
X126909184Y-136289475D01*
X126847660Y-136351000D01*
X126816180Y-136382480D01*
X126754856Y-136415964D01*
X126685165Y-136410980D01*
X126629231Y-136369108D01*
X126604815Y-136303643D01*
X126604499Y-136294820D01*
X126604499Y-135770252D01*
X126601621Y-135739549D01*
X126556369Y-135610227D01*
X126475010Y-135499990D01*
X126475009Y-135499989D01*
X126404865Y-135448219D01*
X126362615Y-135392572D01*
X126354500Y-135348450D01*
X126354500Y-131368910D01*
X126374185Y-131301871D01*
X126390815Y-131281233D01*
X127234309Y-130437738D01*
X127295632Y-130404254D01*
X127346183Y-130403803D01*
X127349687Y-130404500D01*
X127349688Y-130404500D01*
X127498313Y-130404500D01*
X127498314Y-130404499D01*
X127644080Y-130375505D01*
X127781390Y-130318629D01*
X127904966Y-130236059D01*
X128010059Y-130130966D01*
X128092629Y-130007390D01*
X128149505Y-129870080D01*
X128178500Y-129724312D01*
X128178500Y-129575688D01*
X128149505Y-129429920D01*
X128092629Y-129292610D01*
X128051389Y-129230890D01*
X128010060Y-129169035D01*
X128010054Y-129169028D01*
X127904971Y-129063945D01*
X127904964Y-129063939D01*
X127781391Y-128981371D01*
X127644080Y-128924495D01*
X127644072Y-128924493D01*
X127498316Y-128895500D01*
X127498312Y-128895500D01*
X127349688Y-128895500D01*
X127349683Y-128895500D01*
X127203927Y-128924493D01*
X127203919Y-128924495D01*
X127066608Y-128981371D01*
X126943035Y-129063939D01*
X126943028Y-129063945D01*
X126837945Y-129169028D01*
X126837939Y-129169035D01*
X126755371Y-129292608D01*
X126698495Y-129429919D01*
X126698493Y-129429927D01*
X126669500Y-129575683D01*
X126669500Y-129575687D01*
X126669500Y-129575688D01*
X126669500Y-129724312D01*
X126669500Y-129724314D01*
X126669499Y-129724314D01*
X126678824Y-129771188D01*
X126672597Y-129840780D01*
X126644888Y-129883061D01*
X125701631Y-130826320D01*
X125626322Y-130901628D01*
X125626320Y-130901631D01*
X125573066Y-130993868D01*
X125545500Y-131096747D01*
X125545500Y-135348450D01*
X125525815Y-135415489D01*
X125495135Y-135448219D01*
X125424990Y-135499989D01*
X125343631Y-135610227D01*
X125334103Y-135637456D01*
X125293381Y-135694231D01*
X125228428Y-135719978D01*
X125217062Y-135720500D01*
X124701549Y-135720500D01*
X124634510Y-135700815D01*
X124601779Y-135670134D01*
X124550010Y-135599989D01*
X124443851Y-135521641D01*
X124439773Y-135518631D01*
X124439771Y-135518630D01*
X124310458Y-135473380D01*
X124310446Y-135473378D01*
X124279753Y-135470500D01*
X123620257Y-135470500D01*
X123604900Y-135471940D01*
X123589549Y-135473379D01*
X123589546Y-135473379D01*
X123589544Y-135473380D01*
X123460228Y-135518630D01*
X123349989Y-135599989D01*
X123298221Y-135670134D01*
X123242573Y-135712384D01*
X123198451Y-135720500D01*
X123171747Y-135720500D01*
X123100655Y-135739548D01*
X123100655Y-135739549D01*
X123089022Y-135742666D01*
X123068864Y-135748067D01*
X123068860Y-135748069D01*
X122976637Y-135801316D01*
X122976628Y-135801322D01*
X122103265Y-136674684D01*
X122041942Y-136708169D01*
X121972250Y-136703185D01*
X121916317Y-136661313D01*
X121891900Y-136595849D01*
X121892226Y-136574399D01*
X121899999Y-136498319D01*
X121900000Y-136498309D01*
X121900000Y-136475000D01*
X119374000Y-136475000D01*
X119306961Y-136455315D01*
X119261206Y-136402511D01*
X119250000Y-136351000D01*
X119250000Y-136225000D01*
X119124000Y-136225000D01*
X119056961Y-136205315D01*
X119011206Y-136152511D01*
X119000000Y-136101000D01*
X119000000Y-135275000D01*
X119500000Y-135275000D01*
X119500000Y-135975000D01*
X120675000Y-135975000D01*
X121175000Y-135975000D01*
X121899999Y-135975000D01*
X121899999Y-135951692D01*
X121899998Y-135951677D01*
X121889855Y-135852392D01*
X121836547Y-135691518D01*
X121836542Y-135691507D01*
X121747575Y-135547271D01*
X121747572Y-135547267D01*
X121627732Y-135427427D01*
X121627728Y-135427424D01*
X121483492Y-135338457D01*
X121483481Y-135338452D01*
X121322606Y-135285144D01*
X121223322Y-135275000D01*
X121175000Y-135275000D01*
X121175000Y-135975000D01*
X120675000Y-135975000D01*
X120675000Y-135275000D01*
X120674999Y-135274999D01*
X120626693Y-135275000D01*
X120626675Y-135275001D01*
X120527392Y-135285144D01*
X120366518Y-135338452D01*
X120366507Y-135338457D01*
X120222271Y-135427424D01*
X120222267Y-135427427D01*
X120175180Y-135474514D01*
X120113857Y-135507998D01*
X120044165Y-135503013D01*
X119999820Y-135474514D01*
X119952732Y-135427427D01*
X119952728Y-135427424D01*
X119808492Y-135338457D01*
X119808481Y-135338452D01*
X119647606Y-135285144D01*
X119548322Y-135275000D01*
X119500000Y-135275000D01*
X119000000Y-135275000D01*
X118999999Y-135274999D01*
X118951693Y-135275000D01*
X118951675Y-135275001D01*
X118852392Y-135285144D01*
X118691518Y-135338452D01*
X118691507Y-135338457D01*
X118547271Y-135427424D01*
X118547267Y-135427427D01*
X118427427Y-135547267D01*
X118427424Y-135547271D01*
X118358796Y-135658534D01*
X118306848Y-135705259D01*
X118237885Y-135716480D01*
X118173803Y-135688637D01*
X118153992Y-135667748D01*
X118142545Y-135652458D01*
X118142546Y-135652458D01*
X118142544Y-135652456D01*
X118045783Y-135580021D01*
X118032162Y-135569824D01*
X118032160Y-135569823D01*
X117902977Y-135521641D01*
X117902978Y-135521641D01*
X117902974Y-135521640D01*
X117902973Y-135521640D01*
X117845864Y-135515500D01*
X117254136Y-135515500D01*
X117197027Y-135521640D01*
X117197025Y-135521640D01*
X117197021Y-135521641D01*
X117067839Y-135569823D01*
X117067837Y-135569824D01*
X116957456Y-135652456D01*
X116874824Y-135762837D01*
X116874823Y-135762839D01*
X116826641Y-135892021D01*
X116826640Y-135892025D01*
X116826640Y-135892027D01*
X116820500Y-135949136D01*
X116820500Y-135949144D01*
X116820500Y-136494185D01*
X116819484Y-136494185D01*
X116812658Y-136523019D01*
X116805464Y-136556092D01*
X116804536Y-136557330D01*
X116804363Y-136558065D01*
X116784313Y-136584346D01*
X116660180Y-136708479D01*
X116598857Y-136741964D01*
X116529165Y-136736980D01*
X116484818Y-136708479D01*
X116240819Y-136464480D01*
X116207334Y-136403157D01*
X116204500Y-136376799D01*
X116204500Y-135949146D01*
X116204500Y-135949136D01*
X116198360Y-135892027D01*
X116181901Y-135847898D01*
X116150176Y-135762839D01*
X116150175Y-135762837D01*
X116139117Y-135748066D01*
X116067544Y-135652456D01*
X115970783Y-135580021D01*
X115957162Y-135569824D01*
X115957160Y-135569823D01*
X115827977Y-135521641D01*
X115827978Y-135521641D01*
X115827974Y-135521640D01*
X115827973Y-135521640D01*
X115770864Y-135515500D01*
X115179136Y-135515500D01*
X115122027Y-135521640D01*
X115122025Y-135521640D01*
X115122021Y-135521641D01*
X114992839Y-135569823D01*
X114992837Y-135569824D01*
X114882456Y-135652456D01*
X114799824Y-135762837D01*
X114799823Y-135762839D01*
X114751641Y-135892021D01*
X114751640Y-135892025D01*
X114751640Y-135892027D01*
X114745500Y-135949136D01*
X114745500Y-136490864D01*
X114751640Y-136547973D01*
X114751641Y-136547978D01*
X114799823Y-136677160D01*
X114799824Y-136677162D01*
X114807247Y-136687078D01*
X114882456Y-136787544D01*
X114992837Y-136870175D01*
X115016009Y-136878818D01*
X115071943Y-136920690D01*
X115096359Y-136986155D01*
X115081507Y-137054427D01*
X115032101Y-137103833D01*
X115016009Y-137111182D01*
X114992838Y-137119824D01*
X114992837Y-137119824D01*
X114882456Y-137202456D01*
X114799824Y-137312837D01*
X114799823Y-137312839D01*
X114751641Y-137442021D01*
X114751640Y-137442025D01*
X114751640Y-137442027D01*
X114745500Y-137499136D01*
X114745500Y-138040864D01*
X114751640Y-138097973D01*
X114751641Y-138097978D01*
X114799823Y-138227160D01*
X114799824Y-138227162D01*
X114803566Y-138232160D01*
X114882456Y-138337544D01*
X114992837Y-138420175D01*
X114992839Y-138420176D01*
X115114833Y-138465677D01*
X115170767Y-138507548D01*
X115195184Y-138573012D01*
X115195500Y-138581859D01*
X115195500Y-139376000D01*
X115175815Y-139443039D01*
X115123011Y-139488794D01*
X115071500Y-139500000D01*
X115050000Y-139500000D01*
X115050000Y-144000000D01*
X115097828Y-144000000D01*
X115097844Y-143999999D01*
X115157372Y-143993598D01*
X115157379Y-143993596D01*
X115292086Y-143943354D01*
X115292088Y-143943352D01*
X115407186Y-143857190D01*
X115407187Y-143857189D01*
X115446865Y-143804188D01*
X115502799Y-143762317D01*
X115546129Y-143754499D01*
X115775066Y-143754499D01*
X115849301Y-143739734D01*
X115849308Y-143739729D01*
X115852543Y-143738390D01*
X115860188Y-143737567D01*
X115861279Y-143737351D01*
X115861298Y-143737448D01*
X115922012Y-143730920D01*
X115947455Y-143738390D01*
X115950696Y-143739732D01*
X115950699Y-143739734D01*
X115950702Y-143739734D01*
X115950703Y-143739735D01*
X115975666Y-143744700D01*
X116024933Y-143754500D01*
X116475066Y-143754499D01*
X116549301Y-143739734D01*
X116549308Y-143739729D01*
X116552543Y-143738390D01*
X116560188Y-143737567D01*
X116561279Y-143737351D01*
X116561298Y-143737448D01*
X116622012Y-143730920D01*
X116647455Y-143738390D01*
X116650696Y-143739732D01*
X116650699Y-143739734D01*
X116650702Y-143739734D01*
X116650703Y-143739735D01*
X116675666Y-143744700D01*
X116724933Y-143754500D01*
X117175066Y-143754499D01*
X117249301Y-143739734D01*
X117249308Y-143739729D01*
X117252543Y-143738390D01*
X117260188Y-143737567D01*
X117261279Y-143737351D01*
X117261298Y-143737448D01*
X117322012Y-143730920D01*
X117347455Y-143738390D01*
X117350696Y-143739732D01*
X117350699Y-143739734D01*
X117350702Y-143739734D01*
X117350703Y-143739735D01*
X117375666Y-143744700D01*
X117424933Y-143754500D01*
X117875066Y-143754499D01*
X117949301Y-143739734D01*
X117949308Y-143739729D01*
X117952543Y-143738390D01*
X117960188Y-143737567D01*
X117961279Y-143737351D01*
X117961298Y-143737448D01*
X118022012Y-143730920D01*
X118047455Y-143738390D01*
X118050696Y-143739732D01*
X118050699Y-143739734D01*
X118050702Y-143739734D01*
X118050703Y-143739735D01*
X118075666Y-143744700D01*
X118124933Y-143754500D01*
X118575066Y-143754499D01*
X118649301Y-143739734D01*
X118649308Y-143739729D01*
X118652543Y-143738390D01*
X118660188Y-143737567D01*
X118661279Y-143737351D01*
X118661298Y-143737448D01*
X118722012Y-143730920D01*
X118747455Y-143738390D01*
X118750696Y-143739732D01*
X118750699Y-143739734D01*
X118750702Y-143739734D01*
X118750703Y-143739735D01*
X118775666Y-143744700D01*
X118824933Y-143754500D01*
X119053867Y-143754499D01*
X119120906Y-143774183D01*
X119153133Y-143804188D01*
X119192805Y-143857182D01*
X119192814Y-143857191D01*
X119307906Y-143943350D01*
X119307913Y-143943354D01*
X119442620Y-143993596D01*
X119442627Y-143993598D01*
X119502155Y-143999999D01*
X119502172Y-144000000D01*
X119550000Y-144000000D01*
X119550000Y-141874000D01*
X119550679Y-141871684D01*
X119550087Y-141869344D01*
X119560477Y-141838319D01*
X119569685Y-141806961D01*
X119571507Y-141805381D01*
X119572275Y-141803091D01*
X119597790Y-141782607D01*
X119622489Y-141761206D01*
X119625461Y-141760393D01*
X119626760Y-141759351D01*
X119635877Y-141757546D01*
X119660974Y-141750686D01*
X119759746Y-141740252D01*
X119783818Y-141716180D01*
X119845141Y-141682695D01*
X119914833Y-141687679D01*
X119970767Y-141729550D01*
X119995184Y-141795014D01*
X119995500Y-141803861D01*
X119995500Y-141853137D01*
X119994820Y-141855452D01*
X119995413Y-141857793D01*
X119985022Y-141888817D01*
X119975815Y-141920176D01*
X119973600Y-141922923D01*
X119973225Y-141924046D01*
X119971728Y-141925247D01*
X119959182Y-141940817D01*
X119950000Y-141949999D01*
X119950000Y-144000000D01*
X119997828Y-144000000D01*
X119997844Y-143999999D01*
X120057372Y-143993598D01*
X120057379Y-143993596D01*
X120192086Y-143943354D01*
X120192088Y-143943352D01*
X120307186Y-143857190D01*
X120307187Y-143857189D01*
X120346865Y-143804188D01*
X120350521Y-143801450D01*
X120352419Y-143797296D01*
X120378233Y-143780705D01*
X120402799Y-143762317D01*
X120408428Y-143761301D01*
X120411197Y-143759522D01*
X120446128Y-143754499D01*
X120453868Y-143754499D01*
X120520906Y-143774184D01*
X120553133Y-143804188D01*
X120592805Y-143857182D01*
X120592814Y-143857191D01*
X120707906Y-143943350D01*
X120707913Y-143943354D01*
X120842620Y-143993596D01*
X120842627Y-143993598D01*
X120902155Y-143999999D01*
X120902172Y-144000000D01*
X120950000Y-144000000D01*
X120950000Y-141950000D01*
X120940818Y-141940818D01*
X120926114Y-141913890D01*
X120909522Y-141888072D01*
X120908630Y-141881871D01*
X120907333Y-141879495D01*
X120904499Y-141853141D01*
X120904499Y-141673998D01*
X120924184Y-141606961D01*
X120976988Y-141561206D01*
X121028499Y-141550000D01*
X121271500Y-141550000D01*
X121338539Y-141569685D01*
X121384294Y-141622489D01*
X121395500Y-141674000D01*
X121395500Y-141853137D01*
X121375815Y-141920176D01*
X121359182Y-141940817D01*
X121350000Y-141949999D01*
X121350000Y-144000000D01*
X121397828Y-144000000D01*
X121397844Y-143999999D01*
X121457372Y-143993598D01*
X121457379Y-143993596D01*
X121592086Y-143943354D01*
X121592088Y-143943352D01*
X121707186Y-143857190D01*
X121707187Y-143857189D01*
X121746865Y-143804188D01*
X121750521Y-143801450D01*
X121752419Y-143797296D01*
X121778233Y-143780705D01*
X121802799Y-143762317D01*
X121808428Y-143761301D01*
X121811197Y-143759522D01*
X121846128Y-143754499D01*
X121853868Y-143754499D01*
X121920906Y-143774184D01*
X121953133Y-143804188D01*
X121992805Y-143857182D01*
X121992814Y-143857191D01*
X122107906Y-143943350D01*
X122107913Y-143943354D01*
X122242620Y-143993596D01*
X122242627Y-143993598D01*
X122302155Y-143999999D01*
X122302172Y-144000000D01*
X122350000Y-144000000D01*
X122750000Y-144000000D01*
X122797828Y-144000000D01*
X122797844Y-143999999D01*
X122857377Y-143993597D01*
X122864933Y-143991813D01*
X122865272Y-143993250D01*
X122926342Y-143988874D01*
X122941633Y-143993364D01*
X122942622Y-143993597D01*
X123002155Y-143999999D01*
X123002172Y-144000000D01*
X123050000Y-144000000D01*
X123050000Y-139500000D01*
X123002155Y-139500000D01*
X122942624Y-139506401D01*
X122935073Y-139508186D01*
X122934734Y-139506754D01*
X122873630Y-139511119D01*
X122858350Y-139506632D01*
X122857375Y-139506401D01*
X122797844Y-139500000D01*
X122750000Y-139500000D01*
X122750000Y-144000000D01*
X122350000Y-144000000D01*
X122350000Y-141950000D01*
X122340818Y-141940818D01*
X122326114Y-141913890D01*
X122309522Y-141888072D01*
X122308630Y-141881871D01*
X122307333Y-141879495D01*
X122304499Y-141853141D01*
X122304499Y-141646860D01*
X122324184Y-141579823D01*
X122340819Y-141559180D01*
X122350000Y-141549999D01*
X122350000Y-139500000D01*
X122302155Y-139500000D01*
X122242627Y-139506401D01*
X122242619Y-139506403D01*
X122235588Y-139509026D01*
X122165896Y-139514010D01*
X122104574Y-139480525D01*
X121900371Y-139276322D01*
X121900369Y-139276320D01*
X121808131Y-139223066D01*
X121705253Y-139195500D01*
X121705252Y-139195500D01*
X119778500Y-139195500D01*
X119711461Y-139175815D01*
X119665706Y-139123011D01*
X119654500Y-139071500D01*
X119654500Y-138540236D01*
X119674185Y-138473197D01*
X119724482Y-138429613D01*
X119724380Y-138429425D01*
X119725246Y-138428951D01*
X119726989Y-138427442D01*
X119731228Y-138425685D01*
X119732161Y-138425176D01*
X119732161Y-138425175D01*
X119732163Y-138425175D01*
X119842544Y-138342544D01*
X119925175Y-138232163D01*
X119925175Y-138232162D01*
X119927401Y-138229189D01*
X119931057Y-138226451D01*
X119932955Y-138222297D01*
X119958769Y-138205706D01*
X119983335Y-138187318D01*
X119988964Y-138186302D01*
X119991733Y-138184523D01*
X120026668Y-138179500D01*
X120148332Y-138179500D01*
X120215371Y-138199185D01*
X120247599Y-138229189D01*
X120249824Y-138232162D01*
X120249825Y-138232163D01*
X120332456Y-138342544D01*
X120420817Y-138408691D01*
X120442837Y-138425175D01*
X120442839Y-138425176D01*
X120508447Y-138449646D01*
X120558621Y-138468360D01*
X120572022Y-138473358D01*
X120572021Y-138473358D01*
X120572027Y-138473360D01*
X120629136Y-138479500D01*
X120629146Y-138479500D01*
X121220854Y-138479500D01*
X121220864Y-138479500D01*
X121277973Y-138473360D01*
X121407163Y-138425175D01*
X121517544Y-138342544D01*
X121600175Y-138232163D01*
X121600177Y-138232157D01*
X121603599Y-138225892D01*
X121653004Y-138176486D01*
X121680334Y-138165544D01*
X121731131Y-138151934D01*
X121823369Y-138098680D01*
X123229685Y-136692362D01*
X123291006Y-136658879D01*
X123360697Y-136663863D01*
X123390995Y-136680273D01*
X123460227Y-136731369D01*
X123490506Y-136741964D01*
X123589541Y-136776619D01*
X123589545Y-136776619D01*
X123589549Y-136776621D01*
X123620251Y-136779500D01*
X124279748Y-136779499D01*
X124310451Y-136776621D01*
X124439773Y-136731369D01*
X124550010Y-136650010D01*
X124594467Y-136589773D01*
X124601779Y-136579866D01*
X124657427Y-136537616D01*
X124701549Y-136529500D01*
X125237059Y-136529500D01*
X125304098Y-136549185D01*
X125335962Y-136583882D01*
X125338113Y-136582296D01*
X125343630Y-136589772D01*
X125343631Y-136589773D01*
X125384754Y-136645493D01*
X125415448Y-136687082D01*
X125424990Y-136700010D01*
X125495134Y-136751779D01*
X125498155Y-136755758D01*
X125502703Y-136757835D01*
X125519075Y-136783310D01*
X125537384Y-136807425D01*
X125538511Y-136813554D01*
X125540477Y-136816613D01*
X125545500Y-136851548D01*
X125545500Y-136998450D01*
X125525815Y-137065489D01*
X125495135Y-137098219D01*
X125424990Y-137149989D01*
X125343630Y-137260228D01*
X125298380Y-137389541D01*
X125298378Y-137389553D01*
X125295500Y-137420246D01*
X125295500Y-138079742D01*
X125295501Y-138079748D01*
X125298379Y-138110451D01*
X125298379Y-138110453D01*
X125298380Y-138110455D01*
X125343630Y-138239771D01*
X125424989Y-138350010D01*
X125467478Y-138381368D01*
X125535227Y-138431369D01*
X125549402Y-138436329D01*
X125664541Y-138476619D01*
X125664545Y-138476619D01*
X125664549Y-138476621D01*
X125695251Y-138479500D01*
X126204748Y-138479499D01*
X126235451Y-138476621D01*
X126235457Y-138476619D01*
X126242829Y-138475010D01*
X126243412Y-138477682D01*
X126300313Y-138474773D01*
X126360943Y-138509496D01*
X126393176Y-138571486D01*
X126395500Y-138595379D01*
X126395500Y-139376000D01*
X126375815Y-139443039D01*
X126323011Y-139488794D01*
X126271500Y-139500000D01*
X126250000Y-139500000D01*
X126250000Y-144000000D01*
X126297828Y-144000000D01*
X126297844Y-143999999D01*
X126357372Y-143993598D01*
X126357379Y-143993596D01*
X126492086Y-143943354D01*
X126492088Y-143943352D01*
X126607186Y-143857190D01*
X126607187Y-143857189D01*
X126646865Y-143804188D01*
X126702799Y-143762317D01*
X126746129Y-143754499D01*
X126975066Y-143754499D01*
X127049301Y-143739734D01*
X127049308Y-143739729D01*
X127052543Y-143738390D01*
X127060188Y-143737567D01*
X127061279Y-143737351D01*
X127061298Y-143737448D01*
X127122012Y-143730920D01*
X127147455Y-143738390D01*
X127150696Y-143739732D01*
X127150699Y-143739734D01*
X127150702Y-143739734D01*
X127150703Y-143739735D01*
X127175666Y-143744700D01*
X127224933Y-143754500D01*
X127675066Y-143754499D01*
X127749301Y-143739734D01*
X127749308Y-143739729D01*
X127752543Y-143738390D01*
X127760188Y-143737567D01*
X127761279Y-143737351D01*
X127761298Y-143737448D01*
X127822012Y-143730920D01*
X127847455Y-143738390D01*
X127850696Y-143739732D01*
X127850699Y-143739734D01*
X127850702Y-143739734D01*
X127850703Y-143739735D01*
X127875666Y-143744700D01*
X127924933Y-143754500D01*
X128153867Y-143754499D01*
X128220906Y-143774183D01*
X128253133Y-143804188D01*
X128292805Y-143857182D01*
X128292814Y-143857191D01*
X128407906Y-143943350D01*
X128407913Y-143943354D01*
X128542620Y-143993596D01*
X128542627Y-143993598D01*
X128602155Y-143999999D01*
X128602172Y-144000000D01*
X128650000Y-144000000D01*
X129050000Y-144000000D01*
X129097828Y-144000000D01*
X129097844Y-143999999D01*
X129157377Y-143993597D01*
X129164933Y-143991813D01*
X129165272Y-143993250D01*
X129226342Y-143988874D01*
X129241633Y-143993364D01*
X129242622Y-143993597D01*
X129302155Y-143999999D01*
X129302172Y-144000000D01*
X129350000Y-144000000D01*
X129750000Y-144000000D01*
X129797828Y-144000000D01*
X129797844Y-143999999D01*
X129857377Y-143993597D01*
X129864933Y-143991813D01*
X129865272Y-143993250D01*
X129926342Y-143988874D01*
X129941633Y-143993364D01*
X129942622Y-143993597D01*
X130002155Y-143999999D01*
X130002172Y-144000000D01*
X130050000Y-144000000D01*
X130450000Y-144000000D01*
X130497828Y-144000000D01*
X130497844Y-143999999D01*
X130557377Y-143993597D01*
X130564933Y-143991813D01*
X130565272Y-143993250D01*
X130626342Y-143988874D01*
X130641633Y-143993364D01*
X130642622Y-143993597D01*
X130702155Y-143999999D01*
X130702172Y-144000000D01*
X130750000Y-144000000D01*
X131150000Y-144000000D01*
X131197828Y-144000000D01*
X131197844Y-143999999D01*
X131257377Y-143993597D01*
X131264933Y-143991813D01*
X131265272Y-143993250D01*
X131326342Y-143988874D01*
X131341633Y-143993364D01*
X131342622Y-143993597D01*
X131402155Y-143999999D01*
X131402172Y-144000000D01*
X131450000Y-144000000D01*
X131450000Y-141950000D01*
X131150000Y-141950000D01*
X131150000Y-144000000D01*
X130750000Y-144000000D01*
X130750000Y-141950000D01*
X130450000Y-141950000D01*
X130450000Y-144000000D01*
X130050000Y-144000000D01*
X130050000Y-141950000D01*
X129750000Y-141950000D01*
X129750000Y-144000000D01*
X129350000Y-144000000D01*
X129350000Y-141950000D01*
X129050000Y-141950000D01*
X129050000Y-144000000D01*
X128650000Y-144000000D01*
X128650000Y-141550000D01*
X129050000Y-141550000D01*
X129350000Y-141550000D01*
X129750000Y-141550000D01*
X130050000Y-141550000D01*
X130450000Y-141550000D01*
X130750000Y-141550000D01*
X131150000Y-141550000D01*
X131450000Y-141550000D01*
X131450000Y-139500000D01*
X131402155Y-139500000D01*
X131342624Y-139506401D01*
X131335073Y-139508186D01*
X131334734Y-139506754D01*
X131273630Y-139511119D01*
X131258350Y-139506632D01*
X131257375Y-139506401D01*
X131197844Y-139500000D01*
X131150000Y-139500000D01*
X131150000Y-141550000D01*
X130750000Y-141550000D01*
X130750000Y-139500000D01*
X130702155Y-139500000D01*
X130642624Y-139506401D01*
X130635073Y-139508186D01*
X130634734Y-139506754D01*
X130573630Y-139511119D01*
X130558350Y-139506632D01*
X130557375Y-139506401D01*
X130497844Y-139500000D01*
X130450000Y-139500000D01*
X130450000Y-141550000D01*
X130050000Y-141550000D01*
X130050000Y-139500000D01*
X130002155Y-139500000D01*
X129942624Y-139506401D01*
X129935073Y-139508186D01*
X129934734Y-139506754D01*
X129873630Y-139511119D01*
X129858350Y-139506632D01*
X129857375Y-139506401D01*
X129797844Y-139500000D01*
X129750000Y-139500000D01*
X129750000Y-141550000D01*
X129350000Y-141550000D01*
X129350000Y-139500000D01*
X129302155Y-139500000D01*
X129242624Y-139506401D01*
X129235073Y-139508186D01*
X129234734Y-139506754D01*
X129173630Y-139511119D01*
X129158350Y-139506632D01*
X129157375Y-139506401D01*
X129097844Y-139500000D01*
X129050000Y-139500000D01*
X129050000Y-141550000D01*
X128650000Y-141550000D01*
X128650000Y-139500000D01*
X128602155Y-139500000D01*
X128542627Y-139506401D01*
X128542618Y-139506403D01*
X128526325Y-139512480D01*
X128456634Y-139517461D01*
X128395316Y-139483977D01*
X128367669Y-139456330D01*
X128367668Y-139456329D01*
X128286832Y-139409659D01*
X128286833Y-139409659D01*
X128256778Y-139401606D01*
X128196671Y-139385500D01*
X128196669Y-139385500D01*
X127928500Y-139385500D01*
X127861461Y-139365815D01*
X127815706Y-139313011D01*
X127804500Y-139261500D01*
X127804500Y-138592929D01*
X127824185Y-138525890D01*
X127876989Y-138480135D01*
X127887520Y-138475896D01*
X128014773Y-138431369D01*
X128125010Y-138350010D01*
X128206369Y-138239773D01*
X128251621Y-138110451D01*
X128254500Y-138079749D01*
X128254499Y-137648199D01*
X128274183Y-137581161D01*
X128290813Y-137560524D01*
X129419755Y-136431582D01*
X130425001Y-136431582D01*
X130431408Y-136502102D01*
X130431409Y-136502107D01*
X130481981Y-136664396D01*
X130569927Y-136809877D01*
X130690122Y-136930072D01*
X130835599Y-137018016D01*
X130845521Y-137021108D01*
X130903670Y-137059844D01*
X130931645Y-137123869D01*
X130920566Y-137192854D01*
X130882268Y-137239265D01*
X130799989Y-137299989D01*
X130718630Y-137410228D01*
X130673380Y-137539541D01*
X130673378Y-137539553D01*
X130670500Y-137570246D01*
X130670500Y-138079742D01*
X130670501Y-138079748D01*
X130673379Y-138110451D01*
X130673379Y-138110453D01*
X130673380Y-138110455D01*
X130718630Y-138239771D01*
X130799989Y-138350010D01*
X130842478Y-138381368D01*
X130910227Y-138431369D01*
X130924402Y-138436329D01*
X131039541Y-138476619D01*
X131039545Y-138476619D01*
X131039549Y-138476621D01*
X131070251Y-138479500D01*
X131556798Y-138479499D01*
X131623837Y-138499183D01*
X131644479Y-138515818D01*
X131959181Y-138830520D01*
X131992666Y-138891843D01*
X131995500Y-138918201D01*
X131995500Y-139376000D01*
X131975815Y-139443039D01*
X131923011Y-139488794D01*
X131871500Y-139500000D01*
X131850000Y-139500000D01*
X131850000Y-144000000D01*
X131897828Y-144000000D01*
X131897844Y-143999999D01*
X131957372Y-143993598D01*
X131957379Y-143993596D01*
X132092086Y-143943354D01*
X132092088Y-143943352D01*
X132207186Y-143857190D01*
X132207187Y-143857189D01*
X132246865Y-143804188D01*
X132302799Y-143762317D01*
X132346129Y-143754499D01*
X132575066Y-143754499D01*
X132649301Y-143739734D01*
X132649308Y-143739729D01*
X132652543Y-143738390D01*
X132660188Y-143737567D01*
X132661279Y-143737351D01*
X132661298Y-143737448D01*
X132722012Y-143730920D01*
X132747455Y-143738390D01*
X132750696Y-143739732D01*
X132750699Y-143739734D01*
X132750702Y-143739734D01*
X132750703Y-143739735D01*
X132775666Y-143744700D01*
X132824933Y-143754500D01*
X133275066Y-143754499D01*
X133349301Y-143739734D01*
X133349308Y-143739729D01*
X133352543Y-143738390D01*
X133360188Y-143737567D01*
X133361279Y-143737351D01*
X133361298Y-143737448D01*
X133422012Y-143730920D01*
X133447455Y-143738390D01*
X133450696Y-143739732D01*
X133450699Y-143739734D01*
X133450702Y-143739734D01*
X133450703Y-143739735D01*
X133475666Y-143744700D01*
X133524933Y-143754500D01*
X133753867Y-143754499D01*
X133820906Y-143774183D01*
X133853133Y-143804188D01*
X133892805Y-143857182D01*
X133892814Y-143857191D01*
X134007906Y-143943350D01*
X134007913Y-143943354D01*
X134142620Y-143993596D01*
X134142627Y-143993598D01*
X134202155Y-143999999D01*
X134202172Y-144000000D01*
X134250000Y-144000000D01*
X134650000Y-144000000D01*
X134697828Y-144000000D01*
X134697844Y-143999999D01*
X134757377Y-143993597D01*
X134764933Y-143991813D01*
X134765272Y-143993250D01*
X134826342Y-143988874D01*
X134841633Y-143993364D01*
X134842622Y-143993597D01*
X134902155Y-143999999D01*
X134902172Y-144000000D01*
X134950000Y-144000000D01*
X135350000Y-144000000D01*
X135397828Y-144000000D01*
X135397844Y-143999999D01*
X135457372Y-143993598D01*
X135457379Y-143993596D01*
X135592086Y-143943354D01*
X135592093Y-143943350D01*
X135707187Y-143857190D01*
X135707190Y-143857187D01*
X135793350Y-143742093D01*
X135793354Y-143742086D01*
X135843596Y-143607379D01*
X135843598Y-143607372D01*
X135849999Y-143547844D01*
X135850000Y-143547827D01*
X135850000Y-141950000D01*
X135350000Y-141950000D01*
X135350000Y-144000000D01*
X134950000Y-144000000D01*
X134950000Y-141550000D01*
X135350000Y-141550000D01*
X135850000Y-141550000D01*
X135850000Y-139952172D01*
X135849999Y-139952155D01*
X135843598Y-139892627D01*
X135843596Y-139892620D01*
X135793354Y-139757913D01*
X135793350Y-139757906D01*
X135707190Y-139642812D01*
X135707187Y-139642809D01*
X135592093Y-139556649D01*
X135592086Y-139556645D01*
X135457379Y-139506403D01*
X135457372Y-139506401D01*
X135397844Y-139500000D01*
X135350000Y-139500000D01*
X135350000Y-141550000D01*
X134950000Y-141550000D01*
X134950000Y-139500000D01*
X134902155Y-139500000D01*
X134842624Y-139506401D01*
X134835073Y-139508186D01*
X134834734Y-139506754D01*
X134773630Y-139511119D01*
X134758350Y-139506632D01*
X134757375Y-139506401D01*
X134697844Y-139500000D01*
X134650000Y-139500000D01*
X134650000Y-144000000D01*
X134250000Y-144000000D01*
X134250000Y-139500000D01*
X134218500Y-139500000D01*
X134151461Y-139480315D01*
X134105706Y-139427511D01*
X134094500Y-139376000D01*
X134094500Y-139033200D01*
X134114185Y-138966161D01*
X134130819Y-138945519D01*
X134560519Y-138515819D01*
X134621842Y-138482334D01*
X134648200Y-138479500D01*
X135095854Y-138479500D01*
X135095864Y-138479500D01*
X135152973Y-138473360D01*
X135282163Y-138425175D01*
X135392544Y-138342544D01*
X135475175Y-138232163D01*
X135523360Y-138102973D01*
X135529500Y-138045864D01*
X135529500Y-137504136D01*
X135523360Y-137447027D01*
X135513373Y-137420251D01*
X135475176Y-137317839D01*
X135475174Y-137317836D01*
X135413977Y-137236088D01*
X135389561Y-137170627D01*
X135404412Y-137102354D01*
X135448148Y-137056240D01*
X135502733Y-137022571D01*
X135622572Y-136902732D01*
X135622575Y-136902728D01*
X135711542Y-136758492D01*
X135711547Y-136758481D01*
X135764855Y-136597606D01*
X135774999Y-136498322D01*
X135775000Y-136498309D01*
X135775000Y-136475000D01*
X132096362Y-136475000D01*
X132029323Y-136455315D01*
X132008681Y-136438681D01*
X131995000Y-136425000D01*
X130425001Y-136425000D01*
X130425001Y-136431582D01*
X129419755Y-136431582D01*
X130269402Y-135581935D01*
X130330723Y-135548452D01*
X130400415Y-135553436D01*
X130456348Y-135595308D01*
X130480765Y-135660772D01*
X130475467Y-135706508D01*
X130431408Y-135847898D01*
X130425000Y-135918427D01*
X130425000Y-135925000D01*
X131150000Y-135925000D01*
X131150000Y-135275000D01*
X131650000Y-135275000D01*
X131650000Y-135925000D01*
X132403638Y-135925000D01*
X132470677Y-135944685D01*
X132491319Y-135961319D01*
X132505000Y-135975000D01*
X132850000Y-135975000D01*
X132850000Y-135275000D01*
X133350000Y-135275000D01*
X133350000Y-135975000D01*
X134550000Y-135975000D01*
X135050000Y-135975000D01*
X135774999Y-135975000D01*
X135774999Y-135951692D01*
X135774998Y-135951677D01*
X135764855Y-135852392D01*
X135711547Y-135691518D01*
X135711542Y-135691507D01*
X135622575Y-135547271D01*
X135622572Y-135547267D01*
X135502732Y-135427427D01*
X135502728Y-135427424D01*
X135358492Y-135338457D01*
X135358481Y-135338452D01*
X135197606Y-135285144D01*
X135098322Y-135275000D01*
X135050000Y-135275000D01*
X135050000Y-135975000D01*
X134550000Y-135975000D01*
X134550000Y-135275000D01*
X134549999Y-135274999D01*
X134501693Y-135275000D01*
X134501675Y-135275001D01*
X134402392Y-135285144D01*
X134241518Y-135338452D01*
X134241507Y-135338457D01*
X134097271Y-135427424D01*
X134037681Y-135487014D01*
X133976357Y-135520498D01*
X133906666Y-135515513D01*
X133862319Y-135487014D01*
X133802728Y-135427424D01*
X133658492Y-135338457D01*
X133658481Y-135338452D01*
X133497606Y-135285144D01*
X133398322Y-135275000D01*
X133350000Y-135275000D01*
X132850000Y-135275000D01*
X132849999Y-135274999D01*
X132801693Y-135275000D01*
X132801675Y-135275001D01*
X132702392Y-135285144D01*
X132541518Y-135338452D01*
X132541507Y-135338457D01*
X132397271Y-135427424D01*
X132397267Y-135427427D01*
X132345002Y-135479692D01*
X132283679Y-135513176D01*
X132213987Y-135508191D01*
X132169641Y-135479691D01*
X132109877Y-135419927D01*
X131964395Y-135331980D01*
X131964396Y-135331980D01*
X131802105Y-135281409D01*
X131802106Y-135281409D01*
X131731572Y-135275000D01*
X131650000Y-135275000D01*
X131150000Y-135275000D01*
X131149999Y-135274999D01*
X131068417Y-135275000D01*
X130997897Y-135281408D01*
X130997892Y-135281409D01*
X130856510Y-135325466D01*
X130786649Y-135326618D01*
X130727257Y-135289817D01*
X130697189Y-135226748D01*
X130705991Y-135157435D01*
X130731938Y-135119400D01*
X131267987Y-134583351D01*
X136633821Y-129217517D01*
X136695142Y-129184034D01*
X136764834Y-129189018D01*
X136820767Y-129230890D01*
X136845184Y-129296354D01*
X136845500Y-129305200D01*
X136845500Y-143301799D01*
X136825815Y-143368838D01*
X136809181Y-143389480D01*
X135889480Y-144309181D01*
X135828157Y-144342666D01*
X135801799Y-144345500D01*
X124848200Y-144345500D01*
X124781161Y-144325815D01*
X124760519Y-144309181D01*
X124486319Y-144034980D01*
X124467218Y-144000000D01*
X124850000Y-144000000D01*
X124897828Y-144000000D01*
X124897844Y-143999999D01*
X124957377Y-143993597D01*
X124964933Y-143991813D01*
X124965272Y-143993250D01*
X125026342Y-143988874D01*
X125041633Y-143993364D01*
X125042622Y-143993597D01*
X125102155Y-143999999D01*
X125102172Y-144000000D01*
X125150000Y-144000000D01*
X125550000Y-144000000D01*
X125597828Y-144000000D01*
X125597844Y-143999999D01*
X125657377Y-143993597D01*
X125664933Y-143991813D01*
X125665272Y-143993250D01*
X125726342Y-143988874D01*
X125741633Y-143993364D01*
X125742622Y-143993597D01*
X125802155Y-143999999D01*
X125802172Y-144000000D01*
X125850000Y-144000000D01*
X125850000Y-141950000D01*
X125550000Y-141950000D01*
X125550000Y-144000000D01*
X125150000Y-144000000D01*
X125150000Y-141950000D01*
X124850000Y-141950000D01*
X124850000Y-144000000D01*
X124467218Y-144000000D01*
X124452834Y-143973657D01*
X124450000Y-143947299D01*
X124450000Y-141950000D01*
X124440818Y-141940818D01*
X124407333Y-141879495D01*
X124404499Y-141853141D01*
X124404499Y-141646860D01*
X124424184Y-141579823D01*
X124440819Y-141559180D01*
X124449999Y-141550000D01*
X124850000Y-141550000D01*
X125150000Y-141550000D01*
X125550000Y-141550000D01*
X125850000Y-141550000D01*
X125850000Y-139500000D01*
X125802155Y-139500000D01*
X125742624Y-139506401D01*
X125735073Y-139508186D01*
X125734734Y-139506754D01*
X125673630Y-139511119D01*
X125658350Y-139506632D01*
X125657375Y-139506401D01*
X125597844Y-139500000D01*
X125550000Y-139500000D01*
X125550000Y-141550000D01*
X125150000Y-141550000D01*
X125150000Y-139500000D01*
X125102155Y-139500000D01*
X125042624Y-139506401D01*
X125035073Y-139508186D01*
X125034734Y-139506754D01*
X124973630Y-139511119D01*
X124958350Y-139506632D01*
X124957375Y-139506401D01*
X124897844Y-139500000D01*
X124850000Y-139500000D01*
X124850000Y-141550000D01*
X124449999Y-141550000D01*
X124450000Y-141549999D01*
X124450000Y-139500000D01*
X124428500Y-139500000D01*
X124361461Y-139480315D01*
X124315706Y-139427511D01*
X124304500Y-139376000D01*
X124304500Y-138516685D01*
X124324185Y-138449646D01*
X124376989Y-138403891D01*
X124387524Y-138399651D01*
X124439773Y-138381369D01*
X124550010Y-138300010D01*
X124631369Y-138189773D01*
X124663490Y-138097977D01*
X124676619Y-138060458D01*
X124676619Y-138060455D01*
X124676621Y-138060451D01*
X124679500Y-138029749D01*
X124679499Y-137520252D01*
X124676621Y-137489549D01*
X124631369Y-137360227D01*
X124586911Y-137299989D01*
X124550010Y-137249989D01*
X124461544Y-137184699D01*
X124439773Y-137168631D01*
X124439771Y-137168630D01*
X124310458Y-137123380D01*
X124310446Y-137123378D01*
X124279753Y-137120500D01*
X123620257Y-137120500D01*
X123604900Y-137121940D01*
X123589549Y-137123379D01*
X123589546Y-137123379D01*
X123589544Y-137123380D01*
X123460228Y-137168630D01*
X123349989Y-137249989D01*
X123268630Y-137360228D01*
X123223380Y-137489541D01*
X123223378Y-137489553D01*
X123220500Y-137520246D01*
X123220500Y-138029742D01*
X123221542Y-138040855D01*
X123223379Y-138060451D01*
X123223379Y-138060453D01*
X123223380Y-138060455D01*
X123267229Y-138185766D01*
X123268631Y-138189773D01*
X123275813Y-138199504D01*
X123349989Y-138300010D01*
X123407620Y-138342543D01*
X123460227Y-138381369D01*
X123512457Y-138399645D01*
X123569230Y-138440364D01*
X123594978Y-138505317D01*
X123595500Y-138516685D01*
X123595500Y-139376000D01*
X123575815Y-139443039D01*
X123523011Y-139488794D01*
X123471500Y-139500000D01*
X123450000Y-139500000D01*
X123450000Y-141550000D01*
X123459181Y-141559181D01*
X123473884Y-141586108D01*
X123490477Y-141611927D01*
X123491368Y-141618127D01*
X123492666Y-141620504D01*
X123495500Y-141646862D01*
X123495500Y-141853137D01*
X123475815Y-141920176D01*
X123459182Y-141940817D01*
X123450000Y-141949999D01*
X123450000Y-144000000D01*
X123487846Y-144000000D01*
X123554885Y-144019685D01*
X123600640Y-144072489D01*
X123607620Y-144091905D01*
X123619657Y-144136827D01*
X123619659Y-144136832D01*
X123637376Y-144167520D01*
X123666328Y-144217666D01*
X123666330Y-144217669D01*
X124361988Y-144913326D01*
X124361998Y-144913337D01*
X124432333Y-144983672D01*
X124459277Y-144999227D01*
X124513168Y-145030341D01*
X124603328Y-145054500D01*
X124603329Y-145054500D01*
X124603331Y-145054500D01*
X136046669Y-145054500D01*
X136046671Y-145054500D01*
X136136832Y-145030341D01*
X136217668Y-144983671D01*
X137033819Y-144167520D01*
X137095142Y-144134035D01*
X137164834Y-144139019D01*
X137220767Y-144180891D01*
X137245184Y-144246355D01*
X137245500Y-144255201D01*
X137245500Y-146576721D01*
X137225815Y-146643760D01*
X137173011Y-146689515D01*
X137168954Y-146691281D01*
X137124199Y-146709819D01*
X137124184Y-146709827D01*
X136959669Y-146819753D01*
X136959665Y-146819756D01*
X136819756Y-146959665D01*
X136819753Y-146959669D01*
X136709827Y-147124184D01*
X136709820Y-147124197D01*
X136634104Y-147306993D01*
X136634101Y-147307003D01*
X136595500Y-147501062D01*
X136595500Y-147501065D01*
X136595500Y-147698935D01*
X136595500Y-147698937D01*
X136595499Y-147698937D01*
X136634101Y-147892996D01*
X136634104Y-147893006D01*
X136709820Y-148075802D01*
X136709827Y-148075815D01*
X136819753Y-148240330D01*
X136819756Y-148240334D01*
X136959665Y-148380243D01*
X136959669Y-148380246D01*
X137124184Y-148490172D01*
X137124197Y-148490179D01*
X137306993Y-148565895D01*
X137306998Y-148565897D01*
X137307002Y-148565897D01*
X137307003Y-148565898D01*
X137501062Y-148604500D01*
X137501065Y-148604500D01*
X137698937Y-148604500D01*
X137829495Y-148578529D01*
X137893002Y-148565897D01*
X138034389Y-148507332D01*
X138075802Y-148490179D01*
X138075802Y-148490178D01*
X138075809Y-148490176D01*
X138240331Y-148380246D01*
X138380246Y-148240331D01*
X138490176Y-148075809D01*
X138565897Y-147893002D01*
X138580376Y-147820212D01*
X138604500Y-147698937D01*
X138604500Y-147501062D01*
X138565898Y-147307003D01*
X138565897Y-147307002D01*
X138565897Y-147306998D01*
X138540816Y-147246446D01*
X138490179Y-147124197D01*
X138490172Y-147124184D01*
X138380246Y-146959669D01*
X138380243Y-146959665D01*
X138240334Y-146819756D01*
X138240330Y-146819753D01*
X138075815Y-146709827D01*
X138075800Y-146709819D01*
X138031046Y-146691281D01*
X137976643Y-146647440D01*
X137954579Y-146581145D01*
X137954500Y-146576721D01*
X137954500Y-128384193D01*
X137974185Y-128317154D01*
X138026989Y-128271399D01*
X138054304Y-128262576D01*
X138120936Y-128249323D01*
X138240047Y-128199986D01*
X138347245Y-128128358D01*
X138438408Y-128037195D01*
X138510036Y-127929997D01*
X138559373Y-127810886D01*
X138584525Y-127684438D01*
X138584525Y-127555512D01*
X138584300Y-127554384D01*
X138559375Y-127429071D01*
X138559372Y-127429062D01*
X138510038Y-127309957D01*
X138510037Y-127309955D01*
X138438408Y-127202755D01*
X138438405Y-127202751D01*
X138347248Y-127111594D01*
X138347244Y-127111591D01*
X138240044Y-127039962D01*
X138240042Y-127039961D01*
X138120937Y-126990627D01*
X138120928Y-126990624D01*
X137994492Y-126965475D01*
X137994488Y-126965475D01*
X137865562Y-126965475D01*
X137865557Y-126965475D01*
X137739121Y-126990624D01*
X137739113Y-126990627D01*
X137726948Y-126995666D01*
X137657478Y-127003132D01*
X137595000Y-126971854D01*
X137559351Y-126911764D01*
X137555500Y-126881103D01*
X137555500Y-112486019D01*
X137575185Y-112418980D01*
X137591819Y-112398338D01*
X137654625Y-112335532D01*
X137792202Y-112197955D01*
X137838873Y-112117118D01*
X137863032Y-112026958D01*
X137863032Y-111933615D01*
X137863032Y-111926020D01*
X137863031Y-111926002D01*
X137863031Y-110335446D01*
X137858208Y-110317448D01*
X137838872Y-110245285D01*
X137811220Y-110197390D01*
X137806667Y-110189504D01*
X137806666Y-110189501D01*
X137792204Y-110164452D01*
X137792203Y-110164451D01*
X137792202Y-110164449D01*
X137726199Y-110098446D01*
X137726198Y-110098445D01*
X137721868Y-110094115D01*
X137721857Y-110094105D01*
X137306711Y-109678958D01*
X137295205Y-109668866D01*
X136892520Y-109266181D01*
X136859035Y-109204858D01*
X136864019Y-109135166D01*
X136905891Y-109079233D01*
X136971355Y-109054816D01*
X136980201Y-109054500D01*
X140333430Y-109054500D01*
X140400469Y-109074185D01*
X140421111Y-109090819D01*
X140429745Y-109099453D01*
X140441617Y-109117220D01*
X140532780Y-109208383D01*
X140550545Y-109220253D01*
X140559181Y-109228889D01*
X140570305Y-109249261D01*
X140585194Y-109267075D01*
X140588375Y-109282354D01*
X140592666Y-109290212D01*
X140591987Y-109299700D01*
X140595500Y-109316570D01*
X140595500Y-131191753D01*
X140575815Y-131258792D01*
X140523011Y-131304547D01*
X140495694Y-131313370D01*
X140459092Y-131320651D01*
X140459087Y-131320652D01*
X140339982Y-131369986D01*
X140339980Y-131369987D01*
X140232780Y-131441616D01*
X140232776Y-131441619D01*
X140141619Y-131532776D01*
X140141616Y-131532780D01*
X140069987Y-131639980D01*
X140069986Y-131639982D01*
X140020652Y-131759087D01*
X140020649Y-131759096D01*
X139995500Y-131885532D01*
X139995500Y-132014467D01*
X140020649Y-132140903D01*
X140020652Y-132140912D01*
X140069986Y-132260017D01*
X140069987Y-132260019D01*
X140141616Y-132367219D01*
X140141619Y-132367223D01*
X140232776Y-132458380D01*
X140232780Y-132458383D01*
X140339978Y-132530011D01*
X140339979Y-132530011D01*
X140339980Y-132530012D01*
X140339982Y-132530013D01*
X140393390Y-132552135D01*
X140459089Y-132579348D01*
X140459091Y-132579348D01*
X140459096Y-132579350D01*
X140585532Y-132604499D01*
X140585536Y-132604500D01*
X140585537Y-132604500D01*
X140714464Y-132604500D01*
X140714465Y-132604499D01*
X140756612Y-132596116D01*
X140840903Y-132579350D01*
X140840905Y-132579349D01*
X140840911Y-132579348D01*
X140874049Y-132565621D01*
X140943517Y-132558153D01*
X141005996Y-132589428D01*
X141041648Y-132649517D01*
X141045500Y-132680183D01*
X141045500Y-139451799D01*
X141025815Y-139518838D01*
X141009181Y-139539480D01*
X139916330Y-140632330D01*
X139916328Y-140632333D01*
X139869659Y-140713167D01*
X139845500Y-140803330D01*
X139845500Y-146576721D01*
X139825815Y-146643760D01*
X139773011Y-146689515D01*
X139768954Y-146691281D01*
X139724199Y-146709819D01*
X139724184Y-146709827D01*
X139559669Y-146819753D01*
X139559665Y-146819756D01*
X139419756Y-146959665D01*
X139419753Y-146959669D01*
X139309827Y-147124184D01*
X139309820Y-147124197D01*
X139234104Y-147306993D01*
X139234101Y-147307003D01*
X139195500Y-147501062D01*
X139195500Y-147501065D01*
X139195500Y-147698935D01*
X139195500Y-147698937D01*
X139195499Y-147698937D01*
X139234101Y-147892996D01*
X139234104Y-147893006D01*
X139309820Y-148075802D01*
X139309827Y-148075815D01*
X139419753Y-148240330D01*
X139419756Y-148240334D01*
X139559665Y-148380243D01*
X139559669Y-148380246D01*
X139724184Y-148490172D01*
X139724197Y-148490179D01*
X139906993Y-148565895D01*
X139906998Y-148565897D01*
X139907002Y-148565897D01*
X139907003Y-148565898D01*
X140101062Y-148604500D01*
X140101065Y-148604500D01*
X140298937Y-148604500D01*
X140429495Y-148578529D01*
X140493002Y-148565897D01*
X140634389Y-148507332D01*
X140675802Y-148490179D01*
X140675802Y-148490178D01*
X140675809Y-148490176D01*
X140840331Y-148380246D01*
X140980246Y-148240331D01*
X141090176Y-148075809D01*
X141165897Y-147893002D01*
X141180376Y-147820212D01*
X141204500Y-147698937D01*
X141204500Y-147501617D01*
X141550000Y-147501617D01*
X141550000Y-147698382D01*
X141580778Y-147892705D01*
X141641581Y-148079835D01*
X141730905Y-148255145D01*
X141756319Y-148290125D01*
X141756320Y-148290125D01*
X142446446Y-147600000D01*
X142446446Y-147599999D01*
X142400369Y-147553922D01*
X142450000Y-147553922D01*
X142450000Y-147646078D01*
X142473852Y-147735095D01*
X142519930Y-147814905D01*
X142585095Y-147880070D01*
X142664905Y-147926148D01*
X142753922Y-147950000D01*
X142846078Y-147950000D01*
X142935095Y-147926148D01*
X143014905Y-147880070D01*
X143080070Y-147814905D01*
X143126148Y-147735095D01*
X143150000Y-147646078D01*
X143150000Y-147599999D01*
X143153553Y-147599999D01*
X143153553Y-147600001D01*
X143843678Y-148290126D01*
X143843678Y-148290125D01*
X143869095Y-148255143D01*
X143958418Y-148079835D01*
X144019221Y-147892705D01*
X144050000Y-147698382D01*
X144050000Y-147501617D01*
X144019221Y-147307294D01*
X143958418Y-147120164D01*
X143869093Y-146944853D01*
X143843679Y-146909873D01*
X143843677Y-146909873D01*
X143153553Y-147599999D01*
X143150000Y-147599999D01*
X143150000Y-147553922D01*
X143126148Y-147464905D01*
X143080070Y-147385095D01*
X143014905Y-147319930D01*
X142935095Y-147273852D01*
X142846078Y-147250000D01*
X142753922Y-147250000D01*
X142664905Y-147273852D01*
X142585095Y-147319930D01*
X142519930Y-147385095D01*
X142473852Y-147464905D01*
X142450000Y-147553922D01*
X142400369Y-147553922D01*
X141756320Y-146909872D01*
X141756320Y-146909873D01*
X141730902Y-146944859D01*
X141730899Y-146944863D01*
X141641582Y-147120161D01*
X141580778Y-147307294D01*
X141550000Y-147501617D01*
X141204500Y-147501617D01*
X141204500Y-147501062D01*
X141165898Y-147307003D01*
X141165897Y-147307002D01*
X141165897Y-147306998D01*
X141140816Y-147246446D01*
X141090179Y-147124197D01*
X141090172Y-147124184D01*
X140980246Y-146959669D01*
X140980243Y-146959665D01*
X140840334Y-146819756D01*
X140840330Y-146819753D01*
X140680268Y-146712803D01*
X140680266Y-146712802D01*
X140675809Y-146709824D01*
X140630006Y-146690852D01*
X140628871Y-146690356D01*
X140602957Y-146668645D01*
X140576643Y-146647440D01*
X140576255Y-146646274D01*
X140575314Y-146645486D01*
X140565252Y-146613214D01*
X140554579Y-146581145D01*
X140554538Y-146578850D01*
X140554517Y-146578783D01*
X140554535Y-146578715D01*
X140554500Y-146576721D01*
X140554500Y-146556320D01*
X142109872Y-146556320D01*
X142800000Y-147246446D01*
X142800001Y-147246446D01*
X143167735Y-146878711D01*
X145149500Y-146878711D01*
X145149500Y-147121288D01*
X145181161Y-147361785D01*
X145243947Y-147596104D01*
X145286542Y-147698937D01*
X145336776Y-147820212D01*
X145458064Y-148030289D01*
X145458066Y-148030292D01*
X145458067Y-148030293D01*
X145605733Y-148222736D01*
X145605739Y-148222743D01*
X145777256Y-148394260D01*
X145777262Y-148394265D01*
X145969711Y-148541936D01*
X146179788Y-148663224D01*
X146403900Y-148756054D01*
X146638211Y-148818838D01*
X146818586Y-148842584D01*
X146878711Y-148850500D01*
X146878712Y-148850500D01*
X147121289Y-148850500D01*
X147169388Y-148844167D01*
X147361789Y-148818838D01*
X147596100Y-148756054D01*
X147820212Y-148663224D01*
X148030289Y-148541936D01*
X148222738Y-148394265D01*
X148394265Y-148222738D01*
X148541936Y-148030289D01*
X148663224Y-147820212D01*
X148756054Y-147596100D01*
X148818838Y-147361789D01*
X148850500Y-147121288D01*
X148850500Y-146878712D01*
X148818838Y-146638211D01*
X148756054Y-146403900D01*
X148663224Y-146179788D01*
X148541936Y-145969711D01*
X148481018Y-145890321D01*
X148394266Y-145777263D01*
X148394260Y-145777256D01*
X148222743Y-145605739D01*
X148222736Y-145605733D01*
X148030293Y-145458067D01*
X148030292Y-145458066D01*
X148030289Y-145458064D01*
X147820212Y-145336776D01*
X147784506Y-145321986D01*
X147596104Y-145243947D01*
X147361785Y-145181161D01*
X147121289Y-145149500D01*
X147121288Y-145149500D01*
X146878712Y-145149500D01*
X146878711Y-145149500D01*
X146638214Y-145181161D01*
X146403895Y-145243947D01*
X146179794Y-145336773D01*
X146179785Y-145336777D01*
X145969706Y-145458067D01*
X145777263Y-145605733D01*
X145777256Y-145605739D01*
X145605739Y-145777256D01*
X145605733Y-145777263D01*
X145458067Y-145969706D01*
X145336777Y-146179785D01*
X145336773Y-146179794D01*
X145243947Y-146403895D01*
X145181161Y-146638214D01*
X145149500Y-146878711D01*
X143167735Y-146878711D01*
X143490125Y-146556320D01*
X143490125Y-146556319D01*
X143455145Y-146530905D01*
X143279835Y-146441581D01*
X143092705Y-146380778D01*
X142898382Y-146350000D01*
X142701618Y-146350000D01*
X142507294Y-146380778D01*
X142320161Y-146441582D01*
X142144863Y-146530899D01*
X142144859Y-146530902D01*
X142109873Y-146556320D01*
X142109872Y-146556320D01*
X140554500Y-146556320D01*
X140554500Y-141048201D01*
X140574185Y-140981162D01*
X140590819Y-140960520D01*
X141125154Y-140426185D01*
X141683671Y-139867668D01*
X141730341Y-139786832D01*
X141754500Y-139696671D01*
X141754500Y-139603329D01*
X141754500Y-127082162D01*
X141774185Y-127015123D01*
X141826989Y-126969368D01*
X141854309Y-126960544D01*
X141859432Y-126959525D01*
X141859438Y-126959525D01*
X141985886Y-126934373D01*
X142104997Y-126885036D01*
X142212195Y-126813408D01*
X142303358Y-126722245D01*
X142374986Y-126615047D01*
X142424323Y-126495936D01*
X142436886Y-126432780D01*
X142444790Y-126393039D01*
X142449475Y-126369488D01*
X142449475Y-126240562D01*
X142438529Y-126185532D01*
X142424325Y-126114121D01*
X142424322Y-126114112D01*
X142374988Y-125995007D01*
X142374987Y-125995005D01*
X142338220Y-125939980D01*
X142303358Y-125887805D01*
X142303355Y-125887801D01*
X142212198Y-125796644D01*
X142212194Y-125796641D01*
X142104994Y-125725012D01*
X142104992Y-125725011D01*
X141985887Y-125675677D01*
X141985878Y-125675674D01*
X141859442Y-125650525D01*
X141859438Y-125650525D01*
X141730512Y-125650525D01*
X141730507Y-125650525D01*
X141604071Y-125675674D01*
X141604062Y-125675677D01*
X141479324Y-125727345D01*
X141478633Y-125725678D01*
X141418540Y-125738185D01*
X141353298Y-125713180D01*
X141311932Y-125656871D01*
X141304500Y-125614586D01*
X141304500Y-109316570D01*
X141324185Y-109249531D01*
X141359614Y-109213465D01*
X141367220Y-109208383D01*
X141458383Y-109117220D01*
X141530011Y-109010022D01*
X141579348Y-108890911D01*
X141604500Y-108764463D01*
X141604500Y-108635537D01*
X141604275Y-108634409D01*
X141579350Y-108509096D01*
X141579347Y-108509087D01*
X141530013Y-108389982D01*
X141530012Y-108389980D01*
X141500291Y-108345500D01*
X141458383Y-108282780D01*
X141458380Y-108282776D01*
X141367223Y-108191619D01*
X141367219Y-108191616D01*
X141260019Y-108119987D01*
X141260017Y-108119986D01*
X141140912Y-108070652D01*
X141140903Y-108070649D01*
X141014467Y-108045500D01*
X141014463Y-108045500D01*
X140885537Y-108045500D01*
X140885532Y-108045500D01*
X140759096Y-108070649D01*
X140759087Y-108070652D01*
X140639982Y-108119986D01*
X140639980Y-108119987D01*
X140532780Y-108191616D01*
X140532776Y-108191619D01*
X140441623Y-108282773D01*
X140441622Y-108282773D01*
X140441617Y-108282779D01*
X140441617Y-108282780D01*
X140436529Y-108290394D01*
X140382919Y-108335196D01*
X140333430Y-108345500D01*
X117216570Y-108345500D01*
X117149531Y-108325815D01*
X117113471Y-108290395D01*
X117108383Y-108282780D01*
X117108379Y-108282776D01*
X117108377Y-108282773D01*
X117017223Y-108191619D01*
X117017219Y-108191616D01*
X116910019Y-108119987D01*
X116910017Y-108119986D01*
X116790912Y-108070652D01*
X116790903Y-108070649D01*
X116664467Y-108045500D01*
X116664463Y-108045500D01*
X116535537Y-108045500D01*
X116535532Y-108045500D01*
X116409096Y-108070649D01*
X116409087Y-108070652D01*
X116289982Y-108119986D01*
X116289980Y-108119987D01*
X116182780Y-108191616D01*
X116182776Y-108191619D01*
X116091619Y-108282776D01*
X116091616Y-108282780D01*
X116019987Y-108389980D01*
X116019986Y-108389982D01*
X115970652Y-108509087D01*
X115970649Y-108509096D01*
X115945500Y-108635532D01*
X115945500Y-108764467D01*
X115970649Y-108890903D01*
X115970652Y-108890912D01*
X116019986Y-109010017D01*
X116019987Y-109010019D01*
X116091616Y-109117219D01*
X116091619Y-109117223D01*
X116182776Y-109208380D01*
X116182780Y-109208383D01*
X116289978Y-109280011D01*
X116289985Y-109280014D01*
X116291545Y-109280848D01*
X116292212Y-109281503D01*
X116295043Y-109283395D01*
X116294684Y-109283931D01*
X116341389Y-109329811D01*
X116356849Y-109397948D01*
X116333017Y-109463628D01*
X116320772Y-109477887D01*
X113388480Y-112410181D01*
X113327157Y-112443666D01*
X113300799Y-112446500D01*
X110917238Y-112446500D01*
X110850199Y-112426815D01*
X110814138Y-112391393D01*
X110808383Y-112382780D01*
X110808379Y-112382776D01*
X110808377Y-112382773D01*
X110717223Y-112291619D01*
X110717219Y-112291616D01*
X110610019Y-112219987D01*
X110610017Y-112219986D01*
X110490912Y-112170652D01*
X110490903Y-112170649D01*
X110364467Y-112145500D01*
X110364463Y-112145500D01*
X110235537Y-112145500D01*
X110235532Y-112145500D01*
X110109096Y-112170649D01*
X110109087Y-112170652D01*
X109989982Y-112219986D01*
X109989980Y-112219987D01*
X109882780Y-112291616D01*
X109882776Y-112291619D01*
X109791619Y-112382776D01*
X109791616Y-112382780D01*
X109719987Y-112489980D01*
X109719986Y-112489982D01*
X109670652Y-112609087D01*
X109670649Y-112609096D01*
X109645500Y-112735532D01*
X109645500Y-112864467D01*
X109670649Y-112990903D01*
X109670652Y-112990912D01*
X109719986Y-113110017D01*
X109719987Y-113110019D01*
X109791616Y-113217219D01*
X109791619Y-113217223D01*
X109882776Y-113308380D01*
X109882780Y-113308383D01*
X109989978Y-113380011D01*
X109989979Y-113380011D01*
X109989980Y-113380012D01*
X109989982Y-113380013D01*
X110045389Y-113402963D01*
X110109089Y-113429348D01*
X110109091Y-113429348D01*
X110109096Y-113429350D01*
X110235532Y-113454499D01*
X110235536Y-113454500D01*
X110235537Y-113454500D01*
X110364464Y-113454500D01*
X110364465Y-113454499D01*
X110406612Y-113446116D01*
X110490903Y-113429350D01*
X110490906Y-113429348D01*
X110490911Y-113429348D01*
X110610022Y-113380011D01*
X110717220Y-113308383D01*
X110808383Y-113217220D01*
X110812802Y-113210607D01*
X110866415Y-113165803D01*
X110915903Y-113155500D01*
X113545669Y-113155500D01*
X113545671Y-113155500D01*
X113635832Y-113131341D01*
X113716668Y-113084671D01*
X117309520Y-109491819D01*
X117370843Y-109458334D01*
X117397201Y-109455500D01*
X133317496Y-109455500D01*
X133384535Y-109475185D01*
X133430290Y-109527989D01*
X133439113Y-109555308D01*
X133450251Y-109611303D01*
X133450253Y-109611311D01*
X133499587Y-109730416D01*
X133499588Y-109730418D01*
X133571217Y-109837618D01*
X133571220Y-109837622D01*
X133662377Y-109928779D01*
X133662381Y-109928782D01*
X133769579Y-110000410D01*
X133769580Y-110000410D01*
X133769581Y-110000411D01*
X133769583Y-110000412D01*
X133818262Y-110020575D01*
X133888690Y-110049747D01*
X133888692Y-110049747D01*
X133888697Y-110049749D01*
X134015133Y-110074898D01*
X134015137Y-110074899D01*
X134015138Y-110074899D01*
X134144065Y-110074899D01*
X134146465Y-110074421D01*
X134153031Y-110073115D01*
X134222622Y-110079337D01*
X134264912Y-110107049D01*
X135308181Y-111150317D01*
X135341666Y-111211640D01*
X135344500Y-111237998D01*
X135344500Y-112093185D01*
X135344500Y-112186527D01*
X135368659Y-112276688D01*
X135402634Y-112335536D01*
X135415328Y-112357522D01*
X135415330Y-112357525D01*
X135607181Y-112549376D01*
X135640666Y-112610699D01*
X135643500Y-112637057D01*
X135643500Y-125561178D01*
X135623815Y-125628217D01*
X135571011Y-125673972D01*
X135501853Y-125683916D01*
X135465750Y-125672079D01*
X135465651Y-125672320D01*
X135462483Y-125671007D01*
X135461050Y-125670538D01*
X135460020Y-125669988D01*
X135340912Y-125620652D01*
X135340903Y-125620649D01*
X135214467Y-125595500D01*
X135214463Y-125595500D01*
X135085537Y-125595500D01*
X135085532Y-125595500D01*
X134959096Y-125620649D01*
X134959087Y-125620652D01*
X134839982Y-125669986D01*
X134839980Y-125669987D01*
X134732780Y-125741616D01*
X134732776Y-125741619D01*
X134641619Y-125832776D01*
X134641616Y-125832780D01*
X134569987Y-125939980D01*
X134569986Y-125939982D01*
X134520652Y-126059087D01*
X134520649Y-126059096D01*
X134495500Y-126185532D01*
X134495500Y-126314468D01*
X134497286Y-126323448D01*
X134491053Y-126393039D01*
X134463348Y-126435311D01*
X134016181Y-126882479D01*
X133954858Y-126915964D01*
X133885167Y-126910980D01*
X133829233Y-126869109D01*
X133804816Y-126803644D01*
X133804500Y-126794798D01*
X133804500Y-126785536D01*
X133804499Y-126785532D01*
X133779350Y-126659096D01*
X133779347Y-126659087D01*
X133730013Y-126539982D01*
X133730012Y-126539980D01*
X133700583Y-126495937D01*
X133658383Y-126432780D01*
X133658380Y-126432776D01*
X133567223Y-126341619D01*
X133567219Y-126341616D01*
X133460019Y-126269987D01*
X133460017Y-126269986D01*
X133340912Y-126220652D01*
X133340903Y-126220649D01*
X133214467Y-126195500D01*
X133214463Y-126195500D01*
X133085537Y-126195500D01*
X133076557Y-126197285D01*
X133006966Y-126191057D01*
X132964688Y-126163349D01*
X132615669Y-125814330D01*
X132615668Y-125814329D01*
X132534832Y-125767659D01*
X132534833Y-125767659D01*
X132504778Y-125759606D01*
X132444671Y-125743500D01*
X131707307Y-125743500D01*
X131613965Y-125743500D01*
X131553857Y-125759606D01*
X131523803Y-125767659D01*
X131442969Y-125814328D01*
X131442966Y-125814330D01*
X130899116Y-126358181D01*
X130837793Y-126391666D01*
X130811435Y-126394500D01*
X119067201Y-126394500D01*
X119000162Y-126374815D01*
X118979520Y-126358181D01*
X115556871Y-122935532D01*
X121345500Y-122935532D01*
X121345500Y-123064467D01*
X121370649Y-123190903D01*
X121370652Y-123190912D01*
X121419986Y-123310017D01*
X121419987Y-123310019D01*
X121491616Y-123417219D01*
X121491619Y-123417223D01*
X121582776Y-123508380D01*
X121582780Y-123508383D01*
X121689978Y-123580011D01*
X121689979Y-123580011D01*
X121689980Y-123580012D01*
X121689982Y-123580013D01*
X121769385Y-123612902D01*
X121809089Y-123629348D01*
X121809091Y-123629348D01*
X121809096Y-123629350D01*
X121935532Y-123654499D01*
X121935536Y-123654500D01*
X121935537Y-123654500D01*
X122064464Y-123654500D01*
X122064465Y-123654499D01*
X122106612Y-123646116D01*
X122190903Y-123629350D01*
X122190906Y-123629348D01*
X122190911Y-123629348D01*
X122310022Y-123580011D01*
X122417220Y-123508383D01*
X122508383Y-123417220D01*
X122580011Y-123310022D01*
X122629348Y-123190911D01*
X122654500Y-123064463D01*
X122654500Y-122935537D01*
X122652715Y-122926563D01*
X122658939Y-122856973D01*
X122686648Y-122814689D01*
X123415805Y-122085532D01*
X125645500Y-122085532D01*
X125645500Y-122214467D01*
X125670649Y-122340903D01*
X125670652Y-122340912D01*
X125719986Y-122460017D01*
X125719987Y-122460019D01*
X125791616Y-122567219D01*
X125791619Y-122567223D01*
X125882776Y-122658380D01*
X125882780Y-122658383D01*
X125989978Y-122730011D01*
X125989979Y-122730011D01*
X125989980Y-122730012D01*
X125989982Y-122730013D01*
X126069385Y-122762902D01*
X126109089Y-122779348D01*
X126109091Y-122779348D01*
X126109096Y-122779350D01*
X126235532Y-122804499D01*
X126235536Y-122804500D01*
X126235537Y-122804500D01*
X126364464Y-122804500D01*
X126364465Y-122804499D01*
X126437360Y-122790000D01*
X126490903Y-122779350D01*
X126490906Y-122779348D01*
X126490911Y-122779348D01*
X126610022Y-122730011D01*
X126717220Y-122658383D01*
X126808383Y-122567220D01*
X126834183Y-122528608D01*
X126887793Y-122483804D01*
X126937284Y-122473500D01*
X133383430Y-122473500D01*
X133450469Y-122493185D01*
X133486528Y-122528604D01*
X133491617Y-122536220D01*
X133491619Y-122536222D01*
X133491622Y-122536226D01*
X133582776Y-122627380D01*
X133582780Y-122627383D01*
X133689978Y-122699011D01*
X133689979Y-122699011D01*
X133689980Y-122699012D01*
X133689982Y-122699013D01*
X133764819Y-122730011D01*
X133809089Y-122748348D01*
X133809091Y-122748348D01*
X133809096Y-122748350D01*
X133935532Y-122773499D01*
X133935536Y-122773500D01*
X133935537Y-122773500D01*
X134064464Y-122773500D01*
X134064465Y-122773499D01*
X134106612Y-122765116D01*
X134190903Y-122748350D01*
X134190906Y-122748348D01*
X134190911Y-122748348D01*
X134310022Y-122699011D01*
X134417220Y-122627383D01*
X134508383Y-122536220D01*
X134580011Y-122429022D01*
X134629348Y-122309911D01*
X134654500Y-122183463D01*
X134654500Y-122054537D01*
X134635516Y-121959096D01*
X134629350Y-121928096D01*
X134629347Y-121928087D01*
X134580013Y-121808982D01*
X134580012Y-121808980D01*
X134550291Y-121764500D01*
X134508383Y-121701780D01*
X134508380Y-121701776D01*
X134417223Y-121610619D01*
X134417219Y-121610616D01*
X134310019Y-121538987D01*
X134310017Y-121538986D01*
X134190912Y-121489652D01*
X134190903Y-121489649D01*
X134064467Y-121464500D01*
X134064463Y-121464500D01*
X133935537Y-121464500D01*
X133935532Y-121464500D01*
X133809096Y-121489649D01*
X133809087Y-121489652D01*
X133689982Y-121538986D01*
X133689980Y-121538987D01*
X133582780Y-121610616D01*
X133582776Y-121610619D01*
X133491623Y-121701773D01*
X133491622Y-121701773D01*
X133491617Y-121701779D01*
X133491617Y-121701780D01*
X133486529Y-121709394D01*
X133432919Y-121754196D01*
X133383430Y-121764500D01*
X126891466Y-121764500D01*
X126824427Y-121744815D01*
X126803785Y-121728181D01*
X126717223Y-121641619D01*
X126717219Y-121641616D01*
X126610019Y-121569987D01*
X126610017Y-121569986D01*
X126490912Y-121520652D01*
X126490903Y-121520649D01*
X126364467Y-121495500D01*
X126364463Y-121495500D01*
X126235537Y-121495500D01*
X126235532Y-121495500D01*
X126109096Y-121520649D01*
X126109087Y-121520652D01*
X125989982Y-121569986D01*
X125989980Y-121569987D01*
X125882780Y-121641616D01*
X125882776Y-121641619D01*
X125791619Y-121732776D01*
X125791616Y-121732780D01*
X125719987Y-121839980D01*
X125719986Y-121839982D01*
X125670652Y-121959087D01*
X125670649Y-121959096D01*
X125645500Y-122085532D01*
X123415805Y-122085532D01*
X132414689Y-113086648D01*
X132476010Y-113053165D01*
X132526563Y-113052715D01*
X132535535Y-113054499D01*
X132535536Y-113054500D01*
X132535537Y-113054500D01*
X132664464Y-113054500D01*
X132664465Y-113054499D01*
X132738446Y-113039784D01*
X132790903Y-113029350D01*
X132790906Y-113029348D01*
X132790911Y-113029348D01*
X132910022Y-112980011D01*
X133017220Y-112908383D01*
X133108383Y-112817220D01*
X133180011Y-112710022D01*
X133229348Y-112590911D01*
X133254500Y-112464463D01*
X133254500Y-112335537D01*
X133245764Y-112291616D01*
X133229350Y-112209096D01*
X133229347Y-112209087D01*
X133224736Y-112197956D01*
X133191252Y-112117117D01*
X133180013Y-112089982D01*
X133180012Y-112089980D01*
X133108383Y-111982780D01*
X133108380Y-111982776D01*
X133017223Y-111891619D01*
X133017219Y-111891616D01*
X132910019Y-111819987D01*
X132910017Y-111819986D01*
X132790912Y-111770652D01*
X132790903Y-111770649D01*
X132664467Y-111745500D01*
X132664463Y-111745500D01*
X132535537Y-111745500D01*
X132535532Y-111745500D01*
X132409096Y-111770649D01*
X132409087Y-111770652D01*
X132289982Y-111819986D01*
X132289980Y-111819987D01*
X132182780Y-111891616D01*
X132182776Y-111891619D01*
X132091619Y-111982776D01*
X132091616Y-111982780D01*
X132019987Y-112089980D01*
X132019986Y-112089982D01*
X131970652Y-112209087D01*
X131970649Y-112209096D01*
X131945500Y-112335532D01*
X131945500Y-112464468D01*
X131947286Y-112473448D01*
X131941053Y-112543039D01*
X131913348Y-112585311D01*
X122185311Y-122313348D01*
X122123988Y-122346833D01*
X122073448Y-122347286D01*
X122064468Y-122345500D01*
X122064463Y-122345500D01*
X121935537Y-122345500D01*
X121935532Y-122345500D01*
X121809096Y-122370649D01*
X121809087Y-122370652D01*
X121689982Y-122419986D01*
X121689980Y-122419987D01*
X121582780Y-122491616D01*
X121582776Y-122491619D01*
X121491619Y-122582776D01*
X121491616Y-122582780D01*
X121419987Y-122689980D01*
X121419986Y-122689982D01*
X121370652Y-122809087D01*
X121370649Y-122809096D01*
X121345500Y-122935532D01*
X115556871Y-122935532D01*
X105553213Y-112931874D01*
X105519728Y-112870551D01*
X105522963Y-112805874D01*
X105523574Y-112803991D01*
X105523580Y-112803981D01*
X105577303Y-112638638D01*
X105604500Y-112466926D01*
X105604500Y-112293074D01*
X105577303Y-112121362D01*
X105577302Y-112121358D01*
X105577302Y-112121357D01*
X105523581Y-111956021D01*
X105512165Y-111933615D01*
X105444653Y-111801116D01*
X105342465Y-111660467D01*
X105219533Y-111537535D01*
X105078884Y-111435347D01*
X104923978Y-111356418D01*
X104758641Y-111302697D01*
X104629854Y-111282299D01*
X104586926Y-111275500D01*
X104413074Y-111275500D01*
X104355836Y-111284565D01*
X104241360Y-111302697D01*
X104241357Y-111302697D01*
X104076021Y-111356418D01*
X103921115Y-111435347D01*
X103840869Y-111493649D01*
X103780467Y-111537535D01*
X103780465Y-111537537D01*
X103780464Y-111537537D01*
X103657537Y-111660464D01*
X103657537Y-111660465D01*
X103657535Y-111660467D01*
X103613649Y-111720869D01*
X103555347Y-111801115D01*
X103476418Y-111956021D01*
X103422697Y-112121357D01*
X103422697Y-112121360D01*
X103410565Y-112197956D01*
X103395500Y-112293074D01*
X100025500Y-112293074D01*
X100025500Y-109753074D01*
X103395500Y-109753074D01*
X103395500Y-109926926D01*
X103403908Y-109980011D01*
X103422697Y-110098639D01*
X103422697Y-110098642D01*
X103476418Y-110263978D01*
X103512833Y-110335446D01*
X103555347Y-110418884D01*
X103657535Y-110559533D01*
X103780467Y-110682465D01*
X103921116Y-110784653D01*
X104076019Y-110863580D01*
X104076021Y-110863581D01*
X104241358Y-110917302D01*
X104241359Y-110917302D01*
X104241362Y-110917303D01*
X104413074Y-110944500D01*
X104413075Y-110944500D01*
X104586925Y-110944500D01*
X104586926Y-110944500D01*
X104758638Y-110917303D01*
X104758641Y-110917302D01*
X104758642Y-110917302D01*
X104923978Y-110863581D01*
X104923978Y-110863580D01*
X104923981Y-110863580D01*
X105078884Y-110784653D01*
X105219533Y-110682465D01*
X105342465Y-110559533D01*
X105444653Y-110418884D01*
X105523580Y-110263981D01*
X105558806Y-110155567D01*
X105577302Y-110098642D01*
X105577302Y-110098641D01*
X105577303Y-110098638D01*
X105604500Y-109926926D01*
X105604500Y-109753074D01*
X105577303Y-109581362D01*
X105577302Y-109581358D01*
X105577302Y-109581357D01*
X105523581Y-109416021D01*
X105514372Y-109397948D01*
X105444653Y-109261116D01*
X105342465Y-109120467D01*
X105219533Y-108997535D01*
X105078884Y-108895347D01*
X105070162Y-108890903D01*
X104923978Y-108816418D01*
X104758641Y-108762697D01*
X104629854Y-108742299D01*
X104586926Y-108735500D01*
X104413074Y-108735500D01*
X104355836Y-108744565D01*
X104241360Y-108762697D01*
X104241357Y-108762697D01*
X104076021Y-108816418D01*
X103921115Y-108895347D01*
X103840869Y-108953649D01*
X103780467Y-108997535D01*
X103780465Y-108997537D01*
X103780464Y-108997537D01*
X103657537Y-109120464D01*
X103657537Y-109120465D01*
X103657535Y-109120467D01*
X103613649Y-109180869D01*
X103555347Y-109261115D01*
X103476418Y-109416021D01*
X103422697Y-109581357D01*
X103422697Y-109581360D01*
X103399089Y-109730416D01*
X103395500Y-109753074D01*
X100025500Y-109753074D01*
X100025500Y-103003246D01*
X100025670Y-102996757D01*
X100026263Y-102985434D01*
X100031856Y-102878711D01*
X101149500Y-102878711D01*
X101149500Y-103121288D01*
X101181161Y-103361785D01*
X101243947Y-103596104D01*
X101336773Y-103820205D01*
X101336776Y-103820212D01*
X101458064Y-104030289D01*
X101458066Y-104030292D01*
X101458067Y-104030293D01*
X101605733Y-104222736D01*
X101605739Y-104222743D01*
X101777256Y-104394260D01*
X101777262Y-104394265D01*
X101969711Y-104541936D01*
X102179788Y-104663224D01*
X102403900Y-104756054D01*
X102638211Y-104818838D01*
X102818586Y-104842584D01*
X102878711Y-104850500D01*
X102878712Y-104850500D01*
X103121289Y-104850500D01*
X103169388Y-104844167D01*
X103361789Y-104818838D01*
X103596100Y-104756054D01*
X103820212Y-104663224D01*
X104030289Y-104541936D01*
X104222738Y-104394265D01*
X104394265Y-104222738D01*
X104541936Y-104030289D01*
X104663224Y-103820212D01*
X104756054Y-103596100D01*
X104818838Y-103361789D01*
X104850500Y-103121288D01*
X104850500Y-102878712D01*
X104818838Y-102638211D01*
X104756054Y-102403900D01*
X104663224Y-102179788D01*
X104541936Y-101969711D01*
X104408819Y-101796229D01*
X104394266Y-101777263D01*
X104394260Y-101777256D01*
X104222743Y-101605739D01*
X104222736Y-101605733D01*
X104134561Y-101538074D01*
X122635500Y-101538074D01*
X122635500Y-101711925D01*
X122662697Y-101883639D01*
X122662697Y-101883642D01*
X122716418Y-102048978D01*
X122793368Y-102200000D01*
X122795347Y-102203884D01*
X122897535Y-102344533D01*
X123020467Y-102467465D01*
X123161116Y-102569653D01*
X123295669Y-102638211D01*
X123316021Y-102648581D01*
X123481358Y-102702302D01*
X123481359Y-102702302D01*
X123481362Y-102702303D01*
X123653074Y-102729500D01*
X123653075Y-102729500D01*
X123826925Y-102729500D01*
X123826926Y-102729500D01*
X123998638Y-102702303D01*
X123998641Y-102702302D01*
X123998642Y-102702302D01*
X124163978Y-102648581D01*
X124163978Y-102648580D01*
X124163981Y-102648580D01*
X124318884Y-102569653D01*
X124459533Y-102467465D01*
X124582465Y-102344533D01*
X124684653Y-102203884D01*
X124763580Y-102048981D01*
X124817303Y-101883638D01*
X124844500Y-101711926D01*
X124844500Y-101538074D01*
X125175500Y-101538074D01*
X125175500Y-101711925D01*
X125202697Y-101883639D01*
X125202697Y-101883642D01*
X125256418Y-102048978D01*
X125333368Y-102200000D01*
X125335347Y-102203884D01*
X125437535Y-102344533D01*
X125560467Y-102467465D01*
X125701116Y-102569653D01*
X125835669Y-102638211D01*
X125856021Y-102648581D01*
X126021358Y-102702302D01*
X126021359Y-102702302D01*
X126021362Y-102702303D01*
X126193074Y-102729500D01*
X126193075Y-102729500D01*
X126366925Y-102729500D01*
X126366926Y-102729500D01*
X126538638Y-102702303D01*
X126538641Y-102702302D01*
X126538642Y-102702302D01*
X126703978Y-102648581D01*
X126703978Y-102648580D01*
X126703981Y-102648580D01*
X126858884Y-102569653D01*
X126999533Y-102467465D01*
X127122465Y-102344533D01*
X127224653Y-102203884D01*
X127303580Y-102048981D01*
X127357303Y-101883638D01*
X127384500Y-101711926D01*
X127384500Y-101538074D01*
X127357303Y-101366362D01*
X127357302Y-101366358D01*
X127357302Y-101366357D01*
X127303581Y-101201021D01*
X127224652Y-101046115D01*
X127201840Y-101014717D01*
X127122465Y-100905467D01*
X126999533Y-100782535D01*
X126858884Y-100680347D01*
X126703978Y-100601418D01*
X126538641Y-100547697D01*
X126409854Y-100527299D01*
X126366926Y-100520500D01*
X126193074Y-100520500D01*
X126135836Y-100529565D01*
X126021360Y-100547697D01*
X126021357Y-100547697D01*
X125856021Y-100601418D01*
X125701115Y-100680347D01*
X125620869Y-100738649D01*
X125560467Y-100782535D01*
X125560465Y-100782537D01*
X125560464Y-100782537D01*
X125437537Y-100905464D01*
X125437537Y-100905465D01*
X125437535Y-100905467D01*
X125393649Y-100965869D01*
X125335347Y-101046115D01*
X125256418Y-101201021D01*
X125202697Y-101366357D01*
X125202697Y-101366360D01*
X125175500Y-101538074D01*
X124844500Y-101538074D01*
X124817303Y-101366362D01*
X124817302Y-101366358D01*
X124817302Y-101366357D01*
X124763581Y-101201021D01*
X124684652Y-101046115D01*
X124661840Y-101014717D01*
X124582465Y-100905467D01*
X124459533Y-100782535D01*
X124318884Y-100680347D01*
X124163978Y-100601418D01*
X123998641Y-100547697D01*
X123869854Y-100527299D01*
X123826926Y-100520500D01*
X123653074Y-100520500D01*
X123595836Y-100529565D01*
X123481360Y-100547697D01*
X123481357Y-100547697D01*
X123316021Y-100601418D01*
X123161115Y-100680347D01*
X123080869Y-100738649D01*
X123020467Y-100782535D01*
X123020465Y-100782537D01*
X123020464Y-100782537D01*
X122897537Y-100905464D01*
X122897537Y-100905465D01*
X122897535Y-100905467D01*
X122853649Y-100965869D01*
X122795347Y-101046115D01*
X122716418Y-101201021D01*
X122662697Y-101366357D01*
X122662697Y-101366360D01*
X122635500Y-101538074D01*
X104134561Y-101538074D01*
X104030293Y-101458067D01*
X104030292Y-101458066D01*
X104030289Y-101458064D01*
X103820212Y-101336776D01*
X103820205Y-101336773D01*
X103596104Y-101243947D01*
X103361785Y-101181161D01*
X103121289Y-101149500D01*
X103121288Y-101149500D01*
X102878712Y-101149500D01*
X102878711Y-101149500D01*
X102638214Y-101181161D01*
X102403895Y-101243947D01*
X102179794Y-101336773D01*
X102179785Y-101336777D01*
X101969706Y-101458067D01*
X101777263Y-101605733D01*
X101777256Y-101605739D01*
X101605739Y-101777256D01*
X101605733Y-101777263D01*
X101458067Y-101969706D01*
X101336777Y-102179785D01*
X101336773Y-102179794D01*
X101243947Y-102403895D01*
X101181161Y-102638214D01*
X101149500Y-102878711D01*
X100031856Y-102878711D01*
X100041455Y-102695564D01*
X100042812Y-102682659D01*
X100048209Y-102648581D01*
X100089485Y-102387973D01*
X100092175Y-102375312D01*
X100169403Y-102087092D01*
X100173404Y-102074777D01*
X100280336Y-101796211D01*
X100285600Y-101784389D01*
X100421069Y-101518514D01*
X100427530Y-101507324D01*
X100590050Y-101257066D01*
X100597659Y-101246594D01*
X100785437Y-101014707D01*
X100794104Y-101005082D01*
X101005082Y-100794104D01*
X101014707Y-100785437D01*
X101246594Y-100597659D01*
X101257066Y-100590050D01*
X101507324Y-100427530D01*
X101518514Y-100421069D01*
X101784389Y-100285600D01*
X101796211Y-100280336D01*
X102074777Y-100173404D01*
X102087092Y-100169403D01*
X102375312Y-100092175D01*
X102387973Y-100089485D01*
X102682659Y-100042812D01*
X102695564Y-100041455D01*
X103000000Y-100025500D01*
X103008285Y-100025500D01*
X103059210Y-100025500D01*
X103162445Y-100001936D01*
X103167667Y-100001204D01*
X103170507Y-100001622D01*
X103184904Y-100000000D01*
X105315096Y-100000000D01*
X105342689Y-100003109D01*
G37*
G04 #@! TD.AperFunction*
M02*
