M48
; DRILL file {KiCad 9.0.4} date 2025-11-05T08:00:21+0900
; FORMAT={-:-/ absolute / metric / decimal}
; #@! TF.CreationDate,2025-11-05T08:00:21+09:00
; #@! TF.GenerationSoftware,Kicad,Pcbnew,9.0.4
; #@! TF.FileFunction,Plated,1,2,PTH
FMAT,2
METRIC
; #@! TA.AperFunction,Plated,PTH,ViaDrill
T1C0.300
; #@! TA.AperFunction,Plated,PTH,ViaDrill
T2C0.400
; #@! TA.AperFunction,Plated,PTH,ComponentDrill
T3C0.600
; #@! TA.AperFunction,Plated,PTH,ComponentDrill
T4C0.700
; #@! TA.AperFunction,Plated,PTH,ComponentDrill
T5C0.800
; #@! TA.AperFunction,Plated,PTH,ComponentDrill
T6C0.900
; #@! TA.AperFunction,Plated,PTH,ComponentDrill
T7C1.000
%
G90
G05
T1
X103.4Y-135.4
X105.0Y-106.0
X106.302Y-136.27
X106.319Y-135.27
X109.7Y-121.4
X110.3Y-112.8
X111.0Y-115.0
X113.0Y-101.0
X113.0Y-106.0
X113.0Y-126.0
X113.0Y-131.0
X113.0Y-140.0
X115.0Y-146.0
X116.5Y-121.5
X116.6Y-108.7
X117.3Y-110.4
X119.0Y-131.0
X122.0Y-121.5
X122.0Y-123.0
X125.0Y-84.1
X125.0Y-131.0
X125.0Y-146.0
X126.3Y-122.15
X129.0Y-125.0
X129.5Y-138.0
X130.0Y-103.0
X131.0Y-111.0
X131.3Y-131.0
X131.951Y-126.799
X132.0Y-121.0
X132.6Y-112.4
X133.15Y-126.85
X133.393Y-130.4
X134.0Y-117.17
X134.0Y-122.119
X134.08Y-109.42
X135.0Y-146.0
X135.05Y-127.4
X135.15Y-126.25
X135.225Y-109.4
X136.0Y-103.0
X136.799Y-110.664
X136.808Y-111.69
X137.93Y-127.62
X139.0Y-117.17
X139.0Y-131.0
X139.0Y-140.0
X139.05Y-123.25
X140.65Y-131.95
X140.95Y-108.7
X141.795Y-126.305
X142.5Y-103.0
X142.5Y-112.0
X142.5Y-121.0
T2
X127.424Y-129.65
T4
X137.6Y-147.6
X140.2Y-147.6
X142.8Y-147.6
T5
X107.75Y-144.6
X109.25Y-144.6
T6
X123.74Y-97.815
X123.74Y-101.625
X126.28Y-97.815
X126.28Y-101.625
T7
X104.5Y-109.84
X104.5Y-112.38
X104.5Y-114.92
X104.5Y-117.46
X104.5Y-120.0
X104.5Y-122.54
T3
G00X103.12Y-130.9
M15
G01X102.32Y-130.9
M16
G05
G00X103.12Y-139.54
M15
G01X102.32Y-139.54
M16
G05
G00X107.45Y-130.9
M15
G01X106.35Y-130.9
M16
G05
G00X107.45Y-139.54
M15
G01X106.35Y-139.54
M16
G05
M30
